<mxfile host="app.diagrams.net" agent="Mozilla/5.0 (Windows NT 10.0; Win64; x64) AppleWebKit/537.36 (KHTML, like Gecko) Chrome/135.0.0.0 Safari/537.36" version="26.2.14">
  <diagram id="R2lEEEUBdFMjLlhIrx00" name="Page-1">
    <mxGraphModel dx="4041" dy="2306" grid="1" gridSize="10" guides="1" tooltips="1" connect="1" arrows="1" fold="1" page="1" pageScale="1" pageWidth="850" pageHeight="1100" math="0" shadow="0" extFonts="Permanent Marker^https://fonts.googleapis.com/css?family=Permanent+Marker">
      <root>
        <mxCell id="0" />
        <mxCell id="1" parent="0" />
        <mxCell id="l5c5falu1orTu4ODNzKj-1" value="" style="rounded=0;whiteSpace=wrap;html=1;" parent="1" vertex="1">
          <mxGeometry x="227.5" y="-28.75" width="120" height="60" as="geometry" />
        </mxCell>
        <mxCell id="l5c5falu1orTu4ODNzKj-2" value="Doctor" style="text;html=1;align=center;verticalAlign=middle;whiteSpace=wrap;rounded=0;" parent="1" vertex="1">
          <mxGeometry x="257.5" y="-13.75" width="60" height="30" as="geometry" />
        </mxCell>
        <mxCell id="l5c5falu1orTu4ODNzKj-3" value="" style="rounded=0;whiteSpace=wrap;html=1;" parent="1" vertex="1">
          <mxGeometry x="755" y="51.25" width="120" height="60" as="geometry" />
        </mxCell>
        <mxCell id="l5c5falu1orTu4ODNzKj-4" value="Nurse" style="text;html=1;align=center;verticalAlign=middle;whiteSpace=wrap;rounded=0;" parent="1" vertex="1">
          <mxGeometry x="785" y="66.25" width="60" height="30" as="geometry" />
        </mxCell>
        <mxCell id="l5c5falu1orTu4ODNzKj-5" value="" style="rounded=0;whiteSpace=wrap;html=1;" parent="1" vertex="1">
          <mxGeometry x="227.5" y="-800" width="120" height="60" as="geometry" />
        </mxCell>
        <mxCell id="l5c5falu1orTu4ODNzKj-7" value="" style="rounded=0;whiteSpace=wrap;html=1;" parent="1" vertex="1">
          <mxGeometry x="-230" y="121.25" width="120" height="60" as="geometry" />
        </mxCell>
        <mxCell id="l5c5falu1orTu4ODNzKj-8" value="Medical Records" style="text;html=1;align=center;verticalAlign=middle;whiteSpace=wrap;rounded=0;" parent="1" vertex="1">
          <mxGeometry x="-200" y="136.25" width="60" height="30" as="geometry" />
        </mxCell>
        <mxCell id="l5c5falu1orTu4ODNzKj-9" value="" style="rounded=0;whiteSpace=wrap;html=1;" parent="1" vertex="1">
          <mxGeometry x="780" y="570" width="120" height="60" as="geometry" />
        </mxCell>
        <mxCell id="l5c5falu1orTu4ODNzKj-10" value="Pharmacy" style="text;html=1;align=center;verticalAlign=middle;whiteSpace=wrap;rounded=0;" parent="1" vertex="1">
          <mxGeometry x="810" y="585" width="60" height="30" as="geometry" />
        </mxCell>
        <mxCell id="l5c5falu1orTu4ODNzKj-11" value="" style="rounded=0;whiteSpace=wrap;html=1;" parent="1" vertex="1">
          <mxGeometry x="1195" y="-233.75" width="120" height="60" as="geometry" />
        </mxCell>
        <mxCell id="l5c5falu1orTu4ODNzKj-12" value="Medicine" style="text;html=1;align=center;verticalAlign=middle;whiteSpace=wrap;rounded=0;" parent="1" vertex="1">
          <mxGeometry x="1225" y="-218.75" width="60" height="30" as="geometry" />
        </mxCell>
        <mxCell id="l5c5falu1orTu4ODNzKj-13" value="" style="rounded=0;whiteSpace=wrap;html=1;" parent="1" vertex="1">
          <mxGeometry x="222.5" y="-455" width="120" height="60" as="geometry" />
        </mxCell>
        <mxCell id="l5c5falu1orTu4ODNzKj-14" value="Appoinment" style="text;html=1;align=center;verticalAlign=middle;whiteSpace=wrap;rounded=0;" parent="1" vertex="1">
          <mxGeometry x="252.5" y="-440" width="60" height="30" as="geometry" />
        </mxCell>
        <mxCell id="l5c5falu1orTu4ODNzKj-15" value="" style="rhombus;whiteSpace=wrap;html=1;" parent="1" vertex="1">
          <mxGeometry x="247.5" y="-660" width="80" height="80" as="geometry" />
        </mxCell>
        <mxCell id="l5c5falu1orTu4ODNzKj-16" value="Patient" style="text;html=1;align=center;verticalAlign=middle;whiteSpace=wrap;rounded=0;" parent="1" vertex="1">
          <mxGeometry x="257.5" y="-785" width="60" height="30" as="geometry" />
        </mxCell>
        <mxCell id="l5c5falu1orTu4ODNzKj-17" value="Books" style="text;html=1;align=center;verticalAlign=middle;whiteSpace=wrap;rounded=0;" parent="1" vertex="1">
          <mxGeometry x="257.5" y="-635" width="60" height="30" as="geometry" />
        </mxCell>
        <mxCell id="l5c5falu1orTu4ODNzKj-18" value="" style="rounded=0;whiteSpace=wrap;html=1;" parent="1" vertex="1">
          <mxGeometry x="220" y="310" width="120" height="60" as="geometry" />
        </mxCell>
        <mxCell id="l5c5falu1orTu4ODNzKj-19" value="Prescription&lt;div&gt;&lt;br&gt;&lt;/div&gt;" style="text;html=1;align=center;verticalAlign=middle;whiteSpace=wrap;rounded=0;" parent="1" vertex="1">
          <mxGeometry x="240" y="327.5" width="70" height="25" as="geometry" />
        </mxCell>
        <mxCell id="l5c5falu1orTu4ODNzKj-23" value="" style="rhombus;whiteSpace=wrap;html=1;" parent="1" vertex="1">
          <mxGeometry x="780" y="-223.75" width="70" height="80" as="geometry" />
        </mxCell>
        <mxCell id="l5c5falu1orTu4ODNzKj-24" value="Checks" style="text;html=1;align=center;verticalAlign=middle;whiteSpace=wrap;rounded=0;" parent="1" vertex="1">
          <mxGeometry x="790" y="-198.75" width="60" height="30" as="geometry" />
        </mxCell>
        <mxCell id="l5c5falu1orTu4ODNzKj-25" value="" style="rhombus;whiteSpace=wrap;html=1;" parent="1" vertex="1">
          <mxGeometry x="237.5" y="-290" width="80" height="80" as="geometry" />
        </mxCell>
        <mxCell id="l5c5falu1orTu4ODNzKj-26" value="Has" style="text;html=1;align=center;verticalAlign=middle;whiteSpace=wrap;rounded=0;" parent="1" vertex="1">
          <mxGeometry x="247.5" y="-265" width="60" height="30" as="geometry" />
        </mxCell>
        <mxCell id="l5c5falu1orTu4ODNzKj-33" value="" style="rhombus;whiteSpace=wrap;html=1;" parent="1" vertex="1">
          <mxGeometry x="247.5" y="146.25" width="80" height="80" as="geometry" />
        </mxCell>
        <mxCell id="l5c5falu1orTu4ODNzKj-34" value="Provides" style="text;html=1;align=center;verticalAlign=middle;whiteSpace=wrap;rounded=0;" parent="1" vertex="1">
          <mxGeometry x="257.5" y="171.25" width="60" height="30" as="geometry" />
        </mxCell>
        <mxCell id="l5c5falu1orTu4ODNzKj-41" value="" style="rhombus;whiteSpace=wrap;html=1;" parent="1" vertex="1">
          <mxGeometry x="37.5" y="111.25" width="100" height="95" as="geometry" />
        </mxCell>
        <mxCell id="l5c5falu1orTu4ODNzKj-42" value="Access/&lt;div&gt;Retrieve&lt;/div&gt;" style="text;html=1;align=center;verticalAlign=middle;whiteSpace=wrap;rounded=0;" parent="1" vertex="1">
          <mxGeometry x="57.5" y="143.75" width="60" height="30" as="geometry" />
        </mxCell>
        <mxCell id="l5c5falu1orTu4ODNzKj-43" value="" style="rhombus;whiteSpace=wrap;html=1;" parent="1" vertex="1">
          <mxGeometry x="1220" y="-590" width="80" height="80" as="geometry" />
        </mxCell>
        <mxCell id="l5c5falu1orTu4ODNzKj-44" value="Buys" style="text;html=1;align=center;verticalAlign=middle;whiteSpace=wrap;rounded=0;" parent="1" vertex="1">
          <mxGeometry x="1230" y="-565" width="60" height="30" as="geometry" />
        </mxCell>
        <mxCell id="l5c5falu1orTu4ODNzKj-70" value="" style="ellipse;whiteSpace=wrap;html=1;" parent="1" vertex="1">
          <mxGeometry x="400" y="-38.75" width="80" height="50" as="geometry" />
        </mxCell>
        <mxCell id="l5c5falu1orTu4ODNzKj-71" value="Doctor_ID" style="text;html=1;align=center;verticalAlign=middle;whiteSpace=wrap;rounded=0;" parent="1" vertex="1">
          <mxGeometry x="410" y="-28.75" width="60" height="30" as="geometry" />
        </mxCell>
        <mxCell id="l5c5falu1orTu4ODNzKj-72" value="" style="ellipse;whiteSpace=wrap;html=1;" parent="1" vertex="1">
          <mxGeometry x="20" y="-33.75" width="97.5" height="53.75" as="geometry" />
        </mxCell>
        <mxCell id="l5c5falu1orTu4ODNzKj-73" value="Doctor_FirstName" style="text;html=1;align=center;verticalAlign=middle;whiteSpace=wrap;rounded=0;" parent="1" vertex="1">
          <mxGeometry x="30" y="-20" width="77.5" height="26.25" as="geometry" />
        </mxCell>
        <mxCell id="l5c5falu1orTu4ODNzKj-74" value="" style="ellipse;whiteSpace=wrap;html=1;" parent="1" vertex="1">
          <mxGeometry x="385" y="16.25" width="97.5" height="50" as="geometry" />
        </mxCell>
        <mxCell id="l5c5falu1orTu4ODNzKj-75" value="Specialization_ID" style="text;html=1;align=center;verticalAlign=middle;whiteSpace=wrap;rounded=0;" parent="1" vertex="1">
          <mxGeometry x="395" y="26.25" width="77.5" height="30" as="geometry" />
        </mxCell>
        <mxCell id="l5c5falu1orTu4ODNzKj-76" value="" style="ellipse;whiteSpace=wrap;html=1;" parent="1" vertex="1">
          <mxGeometry x="302.5" y="-118.75" width="80" height="50" as="geometry" />
        </mxCell>
        <mxCell id="l5c5falu1orTu4ODNzKj-77" value="Doctor_phone number" style="text;html=1;align=center;verticalAlign=middle;whiteSpace=wrap;rounded=0;" parent="1" vertex="1">
          <mxGeometry x="312.5" y="-108.75" width="60" height="30" as="geometry" />
        </mxCell>
        <mxCell id="l5c5falu1orTu4ODNzKj-78" value="" style="ellipse;whiteSpace=wrap;html=1;" parent="1" vertex="1">
          <mxGeometry x="177.5" y="-128.75" width="80" height="50" as="geometry" />
        </mxCell>
        <mxCell id="l5c5falu1orTu4ODNzKj-79" value="Doctor_email" style="text;html=1;align=center;verticalAlign=middle;whiteSpace=wrap;rounded=0;" parent="1" vertex="1">
          <mxGeometry x="187.5" y="-118.75" width="60" height="30" as="geometry" />
        </mxCell>
        <mxCell id="l5c5falu1orTu4ODNzKj-80" value="" style="ellipse;whiteSpace=wrap;html=1;" parent="1" vertex="1">
          <mxGeometry x="80" y="-88.75" width="110" height="48.75" as="geometry" />
        </mxCell>
        <mxCell id="l5c5falu1orTu4ODNzKj-81" value="Doctor_LastName" style="text;html=1;align=center;verticalAlign=middle;whiteSpace=wrap;rounded=0;" parent="1" vertex="1">
          <mxGeometry x="107.5" y="-78.75" width="60" height="30" as="geometry" />
        </mxCell>
        <mxCell id="l5c5falu1orTu4ODNzKj-88" value="" style="ellipse;whiteSpace=wrap;html=1;" parent="1" vertex="1">
          <mxGeometry x="955" y="56.25" width="95" height="53.75" as="geometry" />
        </mxCell>
        <mxCell id="l5c5falu1orTu4ODNzKj-89" value="Specialization_ID" style="text;html=1;align=center;verticalAlign=middle;whiteSpace=wrap;rounded=0;" parent="1" vertex="1">
          <mxGeometry x="972.5" y="66.25" width="60" height="30" as="geometry" />
        </mxCell>
        <mxCell id="l5c5falu1orTu4ODNzKj-90" value="" style="ellipse;whiteSpace=wrap;html=1;" parent="1" vertex="1">
          <mxGeometry x="895" y="166.25" width="80" height="50" as="geometry" />
        </mxCell>
        <mxCell id="l5c5falu1orTu4ODNzKj-91" value="Nurse_Email" style="text;html=1;align=center;verticalAlign=middle;whiteSpace=wrap;rounded=0;" parent="1" vertex="1">
          <mxGeometry x="905" y="176.25" width="60" height="30" as="geometry" />
        </mxCell>
        <mxCell id="l5c5falu1orTu4ODNzKj-96" value="" style="ellipse;whiteSpace=wrap;html=1;" parent="1" vertex="1">
          <mxGeometry x="850" y="223.75" width="80" height="50" as="geometry" />
        </mxCell>
        <mxCell id="l5c5falu1orTu4ODNzKj-97" value="Nurse_id" style="text;html=1;align=center;verticalAlign=middle;whiteSpace=wrap;rounded=0;" parent="1" vertex="1">
          <mxGeometry x="860" y="233.75" width="60" height="30" as="geometry" />
        </mxCell>
        <mxCell id="l5c5falu1orTu4ODNzKj-98" value="" style="ellipse;whiteSpace=wrap;html=1;" parent="1" vertex="1">
          <mxGeometry x="750" y="193.75" width="95" height="46.25" as="geometry" />
        </mxCell>
        <mxCell id="l5c5falu1orTu4ODNzKj-99" value="Nurse_FirstName" style="text;html=1;align=center;verticalAlign=middle;whiteSpace=wrap;rounded=0;" parent="1" vertex="1">
          <mxGeometry x="770" y="201.25" width="60" height="30" as="geometry" />
        </mxCell>
        <mxCell id="l5c5falu1orTu4ODNzKj-110" value="" style="ellipse;whiteSpace=wrap;html=1;" parent="1" vertex="1">
          <mxGeometry x="657.5" y="-32.5" width="100" height="43.75" as="geometry" />
        </mxCell>
        <mxCell id="l5c5falu1orTu4ODNzKj-111" value="Nurse_Phone_No" style="text;html=1;align=center;verticalAlign=middle;whiteSpace=wrap;rounded=0;" parent="1" vertex="1">
          <mxGeometry x="677.5" y="-25.62" width="60" height="30" as="geometry" />
        </mxCell>
        <mxCell id="l5c5falu1orTu4ODNzKj-112" value="" style="endArrow=none;html=1;rounded=0;exitX=1;exitY=0.5;exitDx=0;exitDy=0;" parent="1" source="l5c5falu1orTu4ODNzKj-110" edge="1">
          <mxGeometry width="50" height="50" relative="1" as="geometry">
            <mxPoint x="705" y="131.25" as="sourcePoint" />
            <mxPoint x="755" y="81.25" as="targetPoint" />
          </mxGeometry>
        </mxCell>
        <mxCell id="l5c5falu1orTu4ODNzKj-114" value="" style="endArrow=none;html=1;rounded=0;exitX=0.5;exitY=0;exitDx=0;exitDy=0;entryX=0.5;entryY=1;entryDx=0;entryDy=0;" parent="1" source="l5c5falu1orTu4ODNzKj-98" target="l5c5falu1orTu4ODNzKj-3" edge="1">
          <mxGeometry width="50" height="50" relative="1" as="geometry">
            <mxPoint x="695" y="191.25" as="sourcePoint" />
            <mxPoint x="808" y="111.25" as="targetPoint" />
          </mxGeometry>
        </mxCell>
        <mxCell id="l5c5falu1orTu4ODNzKj-115" value="" style="endArrow=none;html=1;rounded=0;exitX=0.5;exitY=0;exitDx=0;exitDy=0;entryX=0;entryY=0.5;entryDx=0;entryDy=0;" parent="1" source="l5c5falu1orTu4ODNzKj-96" edge="1">
          <mxGeometry width="50" height="50" relative="1" as="geometry">
            <mxPoint x="710" y="196.25" as="sourcePoint" />
            <mxPoint x="818" y="111.25" as="targetPoint" />
            <Array as="points">
              <mxPoint x="815" y="111.25" />
            </Array>
          </mxGeometry>
        </mxCell>
        <mxCell id="l5c5falu1orTu4ODNzKj-116" value="" style="endArrow=none;html=1;rounded=0;exitX=0.5;exitY=0;exitDx=0;exitDy=0;entryX=0.005;entryY=0.597;entryDx=0;entryDy=0;entryPerimeter=0;" parent="1" target="l5c5falu1orTu4ODNzKj-88" edge="1">
          <mxGeometry width="50" height="50" relative="1" as="geometry">
            <mxPoint x="875" y="86.25" as="sourcePoint" />
            <mxPoint x="990" y="1.25" as="targetPoint" />
          </mxGeometry>
        </mxCell>
        <mxCell id="l5c5falu1orTu4ODNzKj-117" value="" style="endArrow=none;html=1;rounded=0;exitX=0.5;exitY=1;exitDx=0;exitDy=0;entryX=0.005;entryY=0.597;entryDx=0;entryDy=0;entryPerimeter=0;" parent="1" source="l5c5falu1orTu4ODNzKj-3" edge="1">
          <mxGeometry width="50" height="50" relative="1" as="geometry">
            <mxPoint x="855" y="166.01999999999998" as="sourcePoint" />
            <mxPoint x="935" y="166.01999999999998" as="targetPoint" />
          </mxGeometry>
        </mxCell>
        <mxCell id="l5c5falu1orTu4ODNzKj-118" value="" style="endArrow=none;html=1;rounded=0;exitX=0.994;exitY=0.405;exitDx=0;exitDy=0;exitPerimeter=0;entryX=-0.001;entryY=0.574;entryDx=0;entryDy=0;entryPerimeter=0;" parent="1" source="l5c5falu1orTu4ODNzKj-72" target="l5c5falu1orTu4ODNzKj-1" edge="1">
          <mxGeometry width="50" height="50" relative="1" as="geometry">
            <mxPoint x="177.5" y="46.25" as="sourcePoint" />
            <mxPoint x="227.5" y="-3.75" as="targetPoint" />
          </mxGeometry>
        </mxCell>
        <mxCell id="l5c5falu1orTu4ODNzKj-120" value="" style="endArrow=none;html=1;rounded=0;exitX=0.466;exitY=1.003;exitDx=0;exitDy=0;exitPerimeter=0;entryX=-0.002;entryY=0.568;entryDx=0;entryDy=0;entryPerimeter=0;" parent="1" source="l5c5falu1orTu4ODNzKj-80" target="l5c5falu1orTu4ODNzKj-1" edge="1">
          <mxGeometry width="50" height="50" relative="1" as="geometry">
            <mxPoint x="132.5" y="-37.75" as="sourcePoint" />
            <mxPoint x="242.5" y="-38.75" as="targetPoint" />
          </mxGeometry>
        </mxCell>
        <mxCell id="l5c5falu1orTu4ODNzKj-121" value="" style="endArrow=none;html=1;rounded=0;exitX=1;exitY=0.5;exitDx=0;exitDy=0;" parent="1" source="l5c5falu1orTu4ODNzKj-1" edge="1">
          <mxGeometry width="50" height="50" relative="1" as="geometry">
            <mxPoint x="382.4999999999998" y="-5.349999999999909" as="sourcePoint" />
            <mxPoint x="400" y="-10" as="targetPoint" />
          </mxGeometry>
        </mxCell>
        <mxCell id="l5c5falu1orTu4ODNzKj-122" value="" style="endArrow=none;html=1;rounded=0;entryX=1;entryY=0.5;entryDx=0;entryDy=0;" parent="1" target="l5c5falu1orTu4ODNzKj-1" edge="1">
          <mxGeometry width="50" height="50" relative="1" as="geometry">
            <mxPoint x="390" y="30" as="sourcePoint" />
            <mxPoint x="361.6600000000001" y="1.2499999999999432" as="targetPoint" />
          </mxGeometry>
        </mxCell>
        <mxCell id="l5c5falu1orTu4ODNzKj-123" value="" style="endArrow=none;html=1;rounded=0;exitX=0.466;exitY=1.003;exitDx=0;exitDy=0;exitPerimeter=0;entryX=-0.007;entryY=0.576;entryDx=0;entryDy=0;entryPerimeter=0;" parent="1" target="l5c5falu1orTu4ODNzKj-1" edge="1">
          <mxGeometry width="50" height="50" relative="1" as="geometry">
            <mxPoint x="219.5" y="-78.75" as="sourcePoint" />
            <mxPoint x="312.5" y="-34.75" as="targetPoint" />
          </mxGeometry>
        </mxCell>
        <mxCell id="l5c5falu1orTu4ODNzKj-124" value="" style="endArrow=none;html=1;rounded=0;exitX=0.712;exitY=-0.007;exitDx=0;exitDy=0;exitPerimeter=0;" parent="1" source="l5c5falu1orTu4ODNzKj-1" edge="1">
          <mxGeometry width="50" height="50" relative="1" as="geometry">
            <mxPoint x="287.5" y="-18.75" as="sourcePoint" />
            <mxPoint x="337.5" y="-68.75" as="targetPoint" />
          </mxGeometry>
        </mxCell>
        <mxCell id="l5c5falu1orTu4ODNzKj-128" value="" style="ellipse;whiteSpace=wrap;html=1;" parent="1" vertex="1">
          <mxGeometry x="-260" y="31.25" width="80" height="50" as="geometry" />
        </mxCell>
        <mxCell id="l5c5falu1orTu4ODNzKj-129" value="MR_id" style="text;html=1;align=center;verticalAlign=middle;whiteSpace=wrap;rounded=0;" parent="1" vertex="1">
          <mxGeometry x="-250" y="41.25" width="60" height="30" as="geometry" />
        </mxCell>
        <mxCell id="l5c5falu1orTu4ODNzKj-130" value="" style="ellipse;whiteSpace=wrap;html=1;" parent="1" vertex="1">
          <mxGeometry x="-145" y="31.25" width="80" height="50" as="geometry" />
        </mxCell>
        <mxCell id="l5c5falu1orTu4ODNzKj-131" value="file system" style="text;html=1;align=center;verticalAlign=middle;whiteSpace=wrap;rounded=0;" parent="1" vertex="1">
          <mxGeometry x="-135" y="41.25" width="60" height="30" as="geometry" />
        </mxCell>
        <mxCell id="l5c5falu1orTu4ODNzKj-132" value="" style="endArrow=none;html=1;rounded=0;entryX=0.5;entryY=1;entryDx=0;entryDy=0;" parent="1" target="l5c5falu1orTu4ODNzKj-128" edge="1">
          <mxGeometry width="50" height="50" relative="1" as="geometry">
            <mxPoint x="-180" y="121.25" as="sourcePoint" />
            <mxPoint x="-130" y="71.25" as="targetPoint" />
          </mxGeometry>
        </mxCell>
        <mxCell id="l5c5falu1orTu4ODNzKj-133" value="" style="endArrow=none;html=1;rounded=0;entryX=0.381;entryY=0.991;entryDx=0;entryDy=0;exitX=0.413;exitY=-0.005;exitDx=0;exitDy=0;exitPerimeter=0;entryPerimeter=0;" parent="1" source="l5c5falu1orTu4ODNzKj-7" target="l5c5falu1orTu4ODNzKj-130" edge="1">
          <mxGeometry width="50" height="50" relative="1" as="geometry">
            <mxPoint x="-75" y="121.25" as="sourcePoint" />
            <mxPoint x="-115" y="81.25" as="targetPoint" />
          </mxGeometry>
        </mxCell>
        <mxCell id="l5c5falu1orTu4ODNzKj-134" value="" style="ellipse;whiteSpace=wrap;html=1;" parent="1" vertex="1">
          <mxGeometry x="57.5" y="-875" width="80" height="50" as="geometry" />
        </mxCell>
        <mxCell id="l5c5falu1orTu4ODNzKj-135" value="P_id" style="text;html=1;align=center;verticalAlign=middle;whiteSpace=wrap;rounded=0;" parent="1" vertex="1">
          <mxGeometry x="67.5" y="-865" width="60" height="30" as="geometry" />
        </mxCell>
        <mxCell id="l5c5falu1orTu4ODNzKj-136" value="" style="ellipse;whiteSpace=wrap;html=1;" parent="1" vertex="1">
          <mxGeometry x="300" y="-930" width="80" height="50" as="geometry" />
        </mxCell>
        <mxCell id="l5c5falu1orTu4ODNzKj-137" value="P_firstname" style="text;html=1;align=center;verticalAlign=middle;whiteSpace=wrap;rounded=0;" parent="1" vertex="1">
          <mxGeometry x="310" y="-920" width="60" height="30" as="geometry" />
        </mxCell>
        <mxCell id="l5c5falu1orTu4ODNzKj-138" value="" style="ellipse;whiteSpace=wrap;html=1;" parent="1" vertex="1">
          <mxGeometry x="57.5" y="-805" width="80" height="50" as="geometry" />
        </mxCell>
        <mxCell id="l5c5falu1orTu4ODNzKj-139" value="email" style="text;html=1;align=center;verticalAlign=middle;whiteSpace=wrap;rounded=0;" parent="1" vertex="1">
          <mxGeometry x="67.5" y="-795" width="60" height="30" as="geometry" />
        </mxCell>
        <mxCell id="l5c5falu1orTu4ODNzKj-140" value="" style="ellipse;whiteSpace=wrap;html=1;" parent="1" vertex="1">
          <mxGeometry x="395" y="-910" width="80" height="50" as="geometry" />
        </mxCell>
        <mxCell id="l5c5falu1orTu4ODNzKj-141" value="phone number" style="text;html=1;align=center;verticalAlign=middle;whiteSpace=wrap;rounded=0;" parent="1" vertex="1">
          <mxGeometry x="405" y="-900" width="60" height="30" as="geometry" />
        </mxCell>
        <mxCell id="l5c5falu1orTu4ODNzKj-142" value="" style="ellipse;whiteSpace=wrap;html=1;" parent="1" vertex="1">
          <mxGeometry x="117.5" y="-930" width="80" height="50" as="geometry" />
        </mxCell>
        <mxCell id="l5c5falu1orTu4ODNzKj-143" value="DOB" style="text;html=1;align=center;verticalAlign=middle;whiteSpace=wrap;rounded=0;" parent="1" vertex="1">
          <mxGeometry x="127.5" y="-920" width="60" height="30" as="geometry" />
        </mxCell>
        <mxCell id="l5c5falu1orTu4ODNzKj-144" value="" style="ellipse;whiteSpace=wrap;html=1;" parent="1" vertex="1">
          <mxGeometry x="432.5" y="-855" width="80" height="50" as="geometry" />
        </mxCell>
        <mxCell id="l5c5falu1orTu4ODNzKj-145" value="gender" style="text;html=1;align=center;verticalAlign=middle;whiteSpace=wrap;rounded=0;" parent="1" vertex="1">
          <mxGeometry x="442.5" y="-845" width="60" height="30" as="geometry" />
        </mxCell>
        <mxCell id="l5c5falu1orTu4ODNzKj-146" value="" style="ellipse;whiteSpace=wrap;html=1;" parent="1" vertex="1">
          <mxGeometry x="870" y="-38.75" width="130" height="48.75" as="geometry" />
        </mxCell>
        <mxCell id="l5c5falu1orTu4ODNzKj-147" value="Nurse_Registration&lt;br&gt;_Number" style="text;html=1;align=center;verticalAlign=middle;whiteSpace=wrap;rounded=0;" parent="1" vertex="1">
          <mxGeometry x="905" y="-28.75" width="60" height="30" as="geometry" />
        </mxCell>
        <mxCell id="l5c5falu1orTu4ODNzKj-148" value="" style="endArrow=none;html=1;rounded=0;entryX=0.348;entryY=0.98;entryDx=0;entryDy=0;entryPerimeter=0;exitX=0.75;exitY=0;exitDx=0;exitDy=0;" parent="1" source="l5c5falu1orTu4ODNzKj-3" target="l5c5falu1orTu4ODNzKj-146" edge="1">
          <mxGeometry width="50" height="50" relative="1" as="geometry">
            <mxPoint x="845" y="47.25" as="sourcePoint" />
            <mxPoint x="925" y="31.25" as="targetPoint" />
          </mxGeometry>
        </mxCell>
        <mxCell id="l5c5falu1orTu4ODNzKj-149" value="" style="ellipse;whiteSpace=wrap;html=1;" parent="1" vertex="1">
          <mxGeometry x="290" y="413.75" width="80" height="50" as="geometry" />
        </mxCell>
        <mxCell id="l5c5falu1orTu4ODNzKj-150" value="Date" style="text;html=1;align=center;verticalAlign=middle;whiteSpace=wrap;rounded=0;" parent="1" vertex="1">
          <mxGeometry x="300" y="423.75" width="60" height="30" as="geometry" />
        </mxCell>
        <mxCell id="l5c5falu1orTu4ODNzKj-151" value="" style="ellipse;whiteSpace=wrap;html=1;" parent="1" vertex="1">
          <mxGeometry x="185" y="413.75" width="80" height="50" as="geometry" />
        </mxCell>
        <mxCell id="l5c5falu1orTu4ODNzKj-152" value="Pr_id" style="text;html=1;align=center;verticalAlign=middle;whiteSpace=wrap;rounded=0;" parent="1" vertex="1">
          <mxGeometry x="195" y="423.75" width="60" height="30" as="geometry" />
        </mxCell>
        <mxCell id="l5c5falu1orTu4ODNzKj-153" value="" style="ellipse;whiteSpace=wrap;html=1;" parent="1" vertex="1">
          <mxGeometry x="197.5" y="-540" width="80" height="50" as="geometry" />
        </mxCell>
        <mxCell id="l5c5falu1orTu4ODNzKj-154" value="AppointmentID" style="text;html=1;align=center;verticalAlign=middle;whiteSpace=wrap;rounded=0;" parent="1" vertex="1">
          <mxGeometry x="207.5" y="-530" width="60" height="30" as="geometry" />
        </mxCell>
        <mxCell id="l5c5falu1orTu4ODNzKj-155" value="" style="ellipse;whiteSpace=wrap;html=1;" parent="1" vertex="1">
          <mxGeometry x="292.5" y="-540" width="80" height="50" as="geometry" />
        </mxCell>
        <mxCell id="l5c5falu1orTu4ODNzKj-156" value="Date" style="text;html=1;align=center;verticalAlign=middle;whiteSpace=wrap;rounded=0;" parent="1" vertex="1">
          <mxGeometry x="302.5" y="-530" width="60" height="30" as="geometry" />
        </mxCell>
        <mxCell id="l5c5falu1orTu4ODNzKj-157" value="" style="ellipse;whiteSpace=wrap;html=1;" parent="1" vertex="1">
          <mxGeometry x="1115" y="-138.75" width="80" height="50" as="geometry" />
        </mxCell>
        <mxCell id="l5c5falu1orTu4ODNzKj-158" value="medicine_id" style="text;html=1;align=center;verticalAlign=middle;whiteSpace=wrap;rounded=0;" parent="1" vertex="1">
          <mxGeometry x="1125" y="-128.75" width="60" height="30" as="geometry" />
        </mxCell>
        <mxCell id="l5c5falu1orTu4ODNzKj-159" value="" style="ellipse;whiteSpace=wrap;html=1;" parent="1" vertex="1">
          <mxGeometry x="1385" y="-193.75" width="80" height="50" as="geometry" />
        </mxCell>
        <mxCell id="l5c5falu1orTu4ODNzKj-160" value="student_price" style="text;html=1;align=center;verticalAlign=middle;whiteSpace=wrap;rounded=0;" parent="1" vertex="1">
          <mxGeometry x="1395" y="-183.75" width="60" height="30" as="geometry" />
        </mxCell>
        <mxCell id="l5c5falu1orTu4ODNzKj-161" value="" style="ellipse;whiteSpace=wrap;html=1;" parent="1" vertex="1">
          <mxGeometry x="1320" y="-138.75" width="80" height="50" as="geometry" />
        </mxCell>
        <mxCell id="l5c5falu1orTu4ODNzKj-162" value="Price" style="text;html=1;align=center;verticalAlign=middle;whiteSpace=wrap;rounded=0;" parent="1" vertex="1">
          <mxGeometry x="1330" y="-128.75" width="60" height="30" as="geometry" />
        </mxCell>
        <mxCell id="l5c5falu1orTu4ODNzKj-163" value="" style="ellipse;whiteSpace=wrap;html=1;" parent="1" vertex="1">
          <mxGeometry x="920" y="660" width="80" height="50" as="geometry" />
        </mxCell>
        <mxCell id="l5c5falu1orTu4ODNzKj-164" value="pharmacy_id" style="text;html=1;align=center;verticalAlign=middle;whiteSpace=wrap;rounded=0;" parent="1" vertex="1">
          <mxGeometry x="930" y="670" width="60" height="30" as="geometry" />
        </mxCell>
        <mxCell id="l5c5falu1orTu4ODNzKj-165" value="" style="ellipse;whiteSpace=wrap;html=1;" parent="1" vertex="1">
          <mxGeometry x="885" y="720" width="80" height="50" as="geometry" />
        </mxCell>
        <mxCell id="l5c5falu1orTu4ODNzKj-166" value="name" style="text;html=1;align=center;verticalAlign=middle;whiteSpace=wrap;rounded=0;" parent="1" vertex="1">
          <mxGeometry x="895" y="730" width="60" height="30" as="geometry" />
        </mxCell>
        <mxCell id="l5c5falu1orTu4ODNzKj-167" value="" style="ellipse;whiteSpace=wrap;html=1;" parent="1" vertex="1">
          <mxGeometry x="790" y="700" width="80" height="50" as="geometry" />
        </mxCell>
        <mxCell id="l5c5falu1orTu4ODNzKj-168" value="street" style="text;html=1;align=center;verticalAlign=middle;whiteSpace=wrap;rounded=0;" parent="1" vertex="1">
          <mxGeometry x="800" y="710" width="60" height="30" as="geometry" />
        </mxCell>
        <mxCell id="l5c5falu1orTu4ODNzKj-173" value="" style="ellipse;whiteSpace=wrap;html=1;" parent="1" vertex="1">
          <mxGeometry x="625" y="575" width="80" height="50" as="geometry" />
        </mxCell>
        <mxCell id="l5c5falu1orTu4ODNzKj-174" value="city" style="text;html=1;align=center;verticalAlign=middle;whiteSpace=wrap;rounded=0;" parent="1" vertex="1">
          <mxGeometry x="635" y="585" width="60" height="30" as="geometry" />
        </mxCell>
        <mxCell id="l5c5falu1orTu4ODNzKj-175" value="" style="endArrow=none;html=1;rounded=0;exitX=0.853;exitY=-0.004;exitDx=0;exitDy=0;exitPerimeter=0;" parent="1" source="l5c5falu1orTu4ODNzKj-13" edge="1">
          <mxGeometry width="50" height="50" relative="1" as="geometry">
            <mxPoint x="292.5" y="-455" as="sourcePoint" />
            <mxPoint x="332.5" y="-490" as="targetPoint" />
          </mxGeometry>
        </mxCell>
        <mxCell id="l5c5falu1orTu4ODNzKj-176" value="" style="endArrow=none;html=1;rounded=0;exitX=0.415;exitY=-0.002;exitDx=0;exitDy=0;exitPerimeter=0;" parent="1" source="l5c5falu1orTu4ODNzKj-13" edge="1">
          <mxGeometry width="50" height="50" relative="1" as="geometry">
            <mxPoint x="292.5" y="-455" as="sourcePoint" />
            <mxPoint x="242.5" y="-490" as="targetPoint" />
          </mxGeometry>
        </mxCell>
        <mxCell id="l5c5falu1orTu4ODNzKj-177" value="" style="endArrow=none;html=1;rounded=0;entryX=0.623;entryY=0.989;entryDx=0;entryDy=0;entryPerimeter=0;exitX=0.425;exitY=-0.015;exitDx=0;exitDy=0;exitPerimeter=0;" parent="1" source="l5c5falu1orTu4ODNzKj-149" target="l5c5falu1orTu4ODNzKj-18" edge="1">
          <mxGeometry width="50" height="50" relative="1" as="geometry">
            <mxPoint x="322.5" y="411.25" as="sourcePoint" />
            <mxPoint x="220" y="338.75" as="targetPoint" />
          </mxGeometry>
        </mxCell>
        <mxCell id="l5c5falu1orTu4ODNzKj-178" value="" style="endArrow=none;html=1;rounded=0;exitX=0.694;exitY=0.017;exitDx=0;exitDy=0;exitPerimeter=0;entryX=-0.004;entryY=0.483;entryDx=0;entryDy=0;entryPerimeter=0;" parent="1" source="l5c5falu1orTu4ODNzKj-151" edge="1">
          <mxGeometry width="50" height="50" relative="1" as="geometry">
            <mxPoint x="247.48" y="389.77" as="sourcePoint" />
            <mxPoint x="275" y="370" as="targetPoint" />
          </mxGeometry>
        </mxCell>
        <mxCell id="l5c5falu1orTu4ODNzKj-179" value="" style="endArrow=none;html=1;rounded=0;exitX=0.994;exitY=0.381;exitDx=0;exitDy=0;exitPerimeter=0;" parent="1" source="l5c5falu1orTu4ODNzKj-173" edge="1">
          <mxGeometry width="50" height="50" relative="1" as="geometry">
            <mxPoint x="744.8" y="612.2000000000003" as="sourcePoint" />
            <mxPoint x="780" y="590" as="targetPoint" />
          </mxGeometry>
        </mxCell>
        <mxCell id="l5c5falu1orTu4ODNzKj-180" value="" style="endArrow=none;html=1;rounded=0;exitX=0.5;exitY=0;exitDx=0;exitDy=0;entryX=0.055;entryY=1.003;entryDx=0;entryDy=0;entryPerimeter=0;" parent="1" source="l5c5falu1orTu4ODNzKj-167" edge="1">
          <mxGeometry width="50" height="50" relative="1" as="geometry">
            <mxPoint x="815.4" y="660" as="sourcePoint" />
            <mxPoint x="829.9999999999999" y="630.1800000000001" as="targetPoint" />
          </mxGeometry>
        </mxCell>
        <mxCell id="l5c5falu1orTu4ODNzKj-182" value="" style="endArrow=none;html=1;rounded=0;exitX=0;exitY=0;exitDx=0;exitDy=0;entryX=1;entryY=0.807;entryDx=0;entryDy=0;entryPerimeter=0;" parent="1" source="l5c5falu1orTu4ODNzKj-163" edge="1">
          <mxGeometry width="50" height="50" relative="1" as="geometry">
            <mxPoint x="965" y="641.58" as="sourcePoint" />
            <mxPoint x="898" y="629.9999999999997" as="targetPoint" />
          </mxGeometry>
        </mxCell>
        <mxCell id="l5c5falu1orTu4ODNzKj-183" value="" style="endArrow=none;html=1;rounded=0;entryX=0;entryY=1;entryDx=0;entryDy=0;" parent="1" target="l5c5falu1orTu4ODNzKj-11" edge="1">
          <mxGeometry width="50" height="50" relative="1" as="geometry">
            <mxPoint x="1160" y="-138.75" as="sourcePoint" />
            <mxPoint x="1210" y="-188.75" as="targetPoint" />
          </mxGeometry>
        </mxCell>
        <mxCell id="l5c5falu1orTu4ODNzKj-184" value="" style="endArrow=none;html=1;rounded=0;entryX=1.003;entryY=0.625;entryDx=0;entryDy=0;entryPerimeter=0;exitX=0;exitY=0.5;exitDx=0;exitDy=0;" parent="1" source="l5c5falu1orTu4ODNzKj-159" target="l5c5falu1orTu4ODNzKj-11" edge="1">
          <mxGeometry width="50" height="50" relative="1" as="geometry">
            <mxPoint x="1420" y="-193.75" as="sourcePoint" />
            <mxPoint x="1407.52" y="-238.45000000000005" as="targetPoint" />
          </mxGeometry>
        </mxCell>
        <mxCell id="l5c5falu1orTu4ODNzKj-185" value="" style="endArrow=none;html=1;rounded=0;entryX=1;entryY=1;entryDx=0;entryDy=0;" parent="1" target="l5c5falu1orTu4ODNzKj-11" edge="1">
          <mxGeometry width="50" height="50" relative="1" as="geometry">
            <mxPoint x="1365" y="-138.75" as="sourcePoint" />
            <mxPoint x="1353" y="-183.75" as="targetPoint" />
          </mxGeometry>
        </mxCell>
        <mxCell id="l5c5falu1orTu4ODNzKj-187" value="" style="endArrow=none;html=1;rounded=0;entryX=0.755;entryY=0.938;entryDx=0;entryDy=0;entryPerimeter=0;" parent="1" target="l5c5falu1orTu4ODNzKj-138" edge="1">
          <mxGeometry width="50" height="50" relative="1" as="geometry">
            <mxPoint x="227.5" y="-780" as="sourcePoint" />
            <mxPoint x="277.5" y="-830" as="targetPoint" />
          </mxGeometry>
        </mxCell>
        <mxCell id="l5c5falu1orTu4ODNzKj-188" value="" style="endArrow=none;html=1;rounded=0;entryX=0.916;entryY=0.78;entryDx=0;entryDy=0;entryPerimeter=0;exitX=-0.002;exitY=0.331;exitDx=0;exitDy=0;exitPerimeter=0;" parent="1" source="l5c5falu1orTu4ODNzKj-5" target="l5c5falu1orTu4ODNzKj-134" edge="1">
          <mxGeometry width="50" height="50" relative="1" as="geometry">
            <mxPoint x="232.5" y="-852" as="sourcePoint" />
            <mxPoint x="172.5" y="-845" as="targetPoint" />
          </mxGeometry>
        </mxCell>
        <mxCell id="l5c5falu1orTu4ODNzKj-189" value="" style="endArrow=none;html=1;rounded=0;exitX=0.194;exitY=-0.001;exitDx=0;exitDy=0;exitPerimeter=0;" parent="1" source="l5c5falu1orTu4ODNzKj-5" target="l5c5falu1orTu4ODNzKj-142" edge="1">
          <mxGeometry width="50" height="50" relative="1" as="geometry">
            <mxPoint x="305" y="-795" as="sourcePoint" />
            <mxPoint x="250" y="-860" as="targetPoint" />
          </mxGeometry>
        </mxCell>
        <mxCell id="l5c5falu1orTu4ODNzKj-190" value="" style="endArrow=none;html=1;rounded=0;entryX=0.374;entryY=0.989;entryDx=0;entryDy=0;entryPerimeter=0;exitX=0.787;exitY=-0.013;exitDx=0;exitDy=0;exitPerimeter=0;" parent="1" source="l5c5falu1orTu4ODNzKj-5" target="l5c5falu1orTu4ODNzKj-136" edge="1">
          <mxGeometry width="50" height="50" relative="1" as="geometry">
            <mxPoint x="338" y="-800" as="sourcePoint" />
            <mxPoint x="337.5" y="-860" as="targetPoint" />
          </mxGeometry>
        </mxCell>
        <mxCell id="l5c5falu1orTu4ODNzKj-191" value="" style="endArrow=none;html=1;rounded=0;entryX=0;entryY=1;entryDx=0;entryDy=0;exitX=1;exitY=0;exitDx=0;exitDy=0;" parent="1" source="l5c5falu1orTu4ODNzKj-5" target="l5c5falu1orTu4ODNzKj-140" edge="1">
          <mxGeometry width="50" height="50" relative="1" as="geometry">
            <mxPoint x="402.5" y="-740" as="sourcePoint" />
            <mxPoint x="402.5" y="-801" as="targetPoint" />
          </mxGeometry>
        </mxCell>
        <mxCell id="UjBy2W333mnucXlfp_4j-5" value="" style="rhombus;whiteSpace=wrap;html=1;" parent="1" vertex="1">
          <mxGeometry x="1210" y="310" width="100" height="95" as="geometry" />
        </mxCell>
        <mxCell id="UjBy2W333mnucXlfp_4j-6" value="Sells" style="text;html=1;align=center;verticalAlign=middle;whiteSpace=wrap;rounded=0;" parent="1" vertex="1">
          <mxGeometry x="1230" y="342.5" width="60" height="30" as="geometry" />
        </mxCell>
        <mxCell id="UjBy2W333mnucXlfp_4j-7" value="" style="rhombus;whiteSpace=wrap;html=1;" parent="1" vertex="1">
          <mxGeometry x="470" y="520" width="100" height="95" as="geometry" />
        </mxCell>
        <mxCell id="UjBy2W333mnucXlfp_4j-8" value="Access/&lt;div&gt;Retrieve&lt;/div&gt;" style="text;html=1;align=center;verticalAlign=middle;whiteSpace=wrap;rounded=0;" parent="1" vertex="1">
          <mxGeometry x="490" y="552.5" width="60" height="30" as="geometry" />
        </mxCell>
        <mxCell id="UjBy2W333mnucXlfp_4j-10" value="" style="rhombus;whiteSpace=wrap;html=1;" parent="1" vertex="1">
          <mxGeometry x="462.5" y="193.75" width="77.5" height="80" as="geometry" />
        </mxCell>
        <mxCell id="UjBy2W333mnucXlfp_4j-11" value="Provides" style="text;html=1;align=center;verticalAlign=middle;whiteSpace=wrap;rounded=0;" parent="1" vertex="1">
          <mxGeometry x="472.5" y="218.75" width="60" height="30" as="geometry" />
        </mxCell>
        <mxCell id="UjBy2W333mnucXlfp_4j-12" value="" style="rhombus;whiteSpace=wrap;html=1;" parent="1" vertex="1">
          <mxGeometry x="-30" y="193.75" width="100" height="95" as="geometry" />
        </mxCell>
        <mxCell id="UjBy2W333mnucXlfp_4j-13" value="Is Stored" style="text;html=1;align=center;verticalAlign=middle;whiteSpace=wrap;rounded=0;" parent="1" vertex="1">
          <mxGeometry x="-10" y="226.25" width="60" height="30" as="geometry" />
        </mxCell>
        <mxCell id="UjBy2W333mnucXlfp_4j-14" value="" style="endArrow=none;html=1;rounded=0;exitX=0.5;exitY=0;exitDx=0;exitDy=0;" parent="1" source="l5c5falu1orTu4ODNzKj-15" edge="1">
          <mxGeometry width="50" height="50" relative="1" as="geometry">
            <mxPoint x="237.5" y="-690" as="sourcePoint" />
            <mxPoint x="287.5" y="-740" as="targetPoint" />
          </mxGeometry>
        </mxCell>
        <mxCell id="UjBy2W333mnucXlfp_4j-15" value="" style="endArrow=none;html=1;rounded=0;entryX=0.5;entryY=1;entryDx=0;entryDy=0;exitX=0.546;exitY=-0.001;exitDx=0;exitDy=0;exitPerimeter=0;" parent="1" source="l5c5falu1orTu4ODNzKj-13" target="l5c5falu1orTu4ODNzKj-15" edge="1">
          <mxGeometry width="50" height="50" relative="1" as="geometry">
            <mxPoint x="290.5" y="-455" as="sourcePoint" />
            <mxPoint x="290" y="-575" as="targetPoint" />
          </mxGeometry>
        </mxCell>
        <mxCell id="UjBy2W333mnucXlfp_4j-16" value="" style="endArrow=none;html=1;rounded=0;exitX=0.5;exitY=0;exitDx=0;exitDy=0;entryX=0.455;entryY=0.984;entryDx=0;entryDy=0;entryPerimeter=0;" parent="1" source="l5c5falu1orTu4ODNzKj-25" target="l5c5falu1orTu4ODNzKj-13" edge="1">
          <mxGeometry width="50" height="50" relative="1" as="geometry">
            <mxPoint x="282" y="-268" as="sourcePoint" />
            <mxPoint x="277.5" y="-395" as="targetPoint" />
          </mxGeometry>
        </mxCell>
        <mxCell id="UjBy2W333mnucXlfp_4j-17" value="" style="endArrow=none;html=1;rounded=0;exitX=0.5;exitY=0;exitDx=0;exitDy=0;entryX=1;entryY=1;entryDx=0;entryDy=0;" parent="1" source="l5c5falu1orTu4ODNzKj-23" target="l5c5falu1orTu4ODNzKj-13" edge="1">
          <mxGeometry width="50" height="50" relative="1" as="geometry">
            <mxPoint x="710.5" y="-198.75" as="sourcePoint" />
            <mxPoint x="709.5" y="-304.75" as="targetPoint" />
            <Array as="points">
              <mxPoint x="815" y="-395" />
            </Array>
          </mxGeometry>
        </mxCell>
        <mxCell id="UjBy2W333mnucXlfp_4j-18" value="" style="endArrow=none;html=1;rounded=0;exitX=0.425;exitY=-0.021;exitDx=0;exitDy=0;entryX=0.455;entryY=0.984;entryDx=0;entryDy=0;entryPerimeter=0;exitPerimeter=0;" parent="1" source="l5c5falu1orTu4ODNzKj-1" edge="1">
          <mxGeometry width="50" height="50" relative="1" as="geometry">
            <mxPoint x="278.5" y="-104" as="sourcePoint" />
            <mxPoint x="277.5" y="-210" as="targetPoint" />
          </mxGeometry>
        </mxCell>
        <mxCell id="UjBy2W333mnucXlfp_4j-19" value="" style="endArrow=none;html=1;rounded=0;exitX=0.5;exitY=0;exitDx=0;exitDy=0;entryX=0.5;entryY=1;entryDx=0;entryDy=0;" parent="1" target="l5c5falu1orTu4ODNzKj-23" edge="1">
          <mxGeometry width="50" height="50" relative="1" as="geometry">
            <mxPoint x="816" y="51.25" as="sourcePoint" />
            <mxPoint x="815" y="-54.75" as="targetPoint" />
          </mxGeometry>
        </mxCell>
        <mxCell id="UjBy2W333mnucXlfp_4j-21" value="" style="endArrow=none;html=1;rounded=0;entryX=1;entryY=1;entryDx=0;entryDy=0;exitX=0.5;exitY=0;exitDx=0;exitDy=0;" parent="1" source="l5c5falu1orTu4ODNzKj-43" target="l5c5falu1orTu4ODNzKj-5" edge="1">
          <mxGeometry width="50" height="50" relative="1" as="geometry">
            <mxPoint x="810" y="-520" as="sourcePoint" />
            <mxPoint x="406.5" y="-810" as="targetPoint" />
            <Array as="points">
              <mxPoint x="1260" y="-740" />
              <mxPoint x="850" y="-740" />
            </Array>
          </mxGeometry>
        </mxCell>
        <mxCell id="UjBy2W333mnucXlfp_4j-22" value="" style="endArrow=none;html=1;rounded=0;exitX=0.5;exitY=0;exitDx=0;exitDy=0;entryX=0.536;entryY=1.005;entryDx=0;entryDy=0;entryPerimeter=0;" parent="1" source="UjBy2W333mnucXlfp_4j-5" target="l5c5falu1orTu4ODNzKj-11" edge="1">
          <mxGeometry width="50" height="50" relative="1" as="geometry">
            <mxPoint x="1697" y="111.25" as="sourcePoint" />
            <mxPoint x="1290" y="-175" as="targetPoint" />
          </mxGeometry>
        </mxCell>
        <mxCell id="UjBy2W333mnucXlfp_4j-23" value="" style="endArrow=none;html=1;rounded=0;exitX=0.5;exitY=1;exitDx=0;exitDy=0;entryX=1;entryY=0;entryDx=0;entryDy=0;" parent="1" source="UjBy2W333mnucXlfp_4j-5" target="l5c5falu1orTu4ODNzKj-9" edge="1">
          <mxGeometry width="50" height="50" relative="1" as="geometry">
            <mxPoint x="1577" y="783.25" as="sourcePoint" />
            <mxPoint x="1170" y="497" as="targetPoint" />
            <Array as="points">
              <mxPoint x="1260" y="570" />
            </Array>
          </mxGeometry>
        </mxCell>
        <mxCell id="UjBy2W333mnucXlfp_4j-24" value="" style="endArrow=none;html=1;rounded=0;exitX=0.5;exitY=0;exitDx=0;exitDy=0;entryX=0.5;entryY=1;entryDx=0;entryDy=0;" parent="1" source="l5c5falu1orTu4ODNzKj-33" target="l5c5falu1orTu4ODNzKj-1" edge="1">
          <mxGeometry width="50" height="50" relative="1" as="geometry">
            <mxPoint x="685" y="317.5" as="sourcePoint" />
            <mxPoint x="278" y="31.25" as="targetPoint" />
          </mxGeometry>
        </mxCell>
        <mxCell id="UjBy2W333mnucXlfp_4j-26" value="" style="endArrow=none;html=1;rounded=0;exitX=0.5;exitY=0;exitDx=0;exitDy=0;entryX=1;entryY=0.5;entryDx=0;entryDy=0;" parent="1" source="UjBy2W333mnucXlfp_4j-7" edge="1">
          <mxGeometry width="50" height="50" relative="1" as="geometry">
            <mxPoint x="747" y="656.25" as="sourcePoint" />
            <mxPoint x="340" y="370" as="targetPoint" />
          </mxGeometry>
        </mxCell>
        <mxCell id="UjBy2W333mnucXlfp_4j-27" value="" style="endArrow=none;html=1;rounded=0;exitX=0;exitY=0;exitDx=0;exitDy=0;entryX=1;entryY=0.5;entryDx=0;entryDy=0;" parent="1" source="l5c5falu1orTu4ODNzKj-9" target="UjBy2W333mnucXlfp_4j-7" edge="1">
          <mxGeometry width="50" height="50" relative="1" as="geometry">
            <mxPoint x="755" y="544.75" as="sourcePoint" />
            <mxPoint x="595" y="453.75" as="targetPoint" />
          </mxGeometry>
        </mxCell>
        <mxCell id="UjBy2W333mnucXlfp_4j-28" value="" style="endArrow=none;html=1;rounded=0;entryX=0.5;entryY=1;entryDx=0;entryDy=0;" parent="1" edge="1">
          <mxGeometry width="50" height="50" relative="1" as="geometry">
            <mxPoint x="288" y="310" as="sourcePoint" />
            <mxPoint x="287.5" y="226.25" as="targetPoint" />
          </mxGeometry>
        </mxCell>
        <mxCell id="UjBy2W333mnucXlfp_4j-29" value="" style="endArrow=none;html=1;rounded=0;entryX=1;entryY=0.5;entryDx=0;entryDy=0;exitX=0;exitY=0.5;exitDx=0;exitDy=0;" parent="1" source="l5c5falu1orTu4ODNzKj-18" target="UjBy2W333mnucXlfp_4j-12" edge="1">
          <mxGeometry width="50" height="50" relative="1" as="geometry">
            <mxPoint x="220" y="343" as="sourcePoint" />
            <mxPoint x="62.5" y="251.5" as="targetPoint" />
          </mxGeometry>
        </mxCell>
        <mxCell id="UjBy2W333mnucXlfp_4j-30" value="" style="endArrow=none;html=1;rounded=0;exitX=0;exitY=0.5;exitDx=0;exitDy=0;entryX=1;entryY=1;entryDx=0;entryDy=0;" parent="1" source="UjBy2W333mnucXlfp_4j-12" target="l5c5falu1orTu4ODNzKj-7" edge="1">
          <mxGeometry width="50" height="50" relative="1" as="geometry">
            <mxPoint x="-20" y="323.75" as="sourcePoint" />
            <mxPoint x="-252.5" y="321.25" as="targetPoint" />
          </mxGeometry>
        </mxCell>
        <mxCell id="UjBy2W333mnucXlfp_4j-33" value="" style="endArrow=none;html=1;rounded=0;exitX=0;exitY=0.5;exitDx=0;exitDy=0;entryX=1;entryY=0.5;entryDx=0;entryDy=0;" parent="1" source="UjBy2W333mnucXlfp_4j-10" edge="1">
          <mxGeometry width="50" height="50" relative="1" as="geometry">
            <mxPoint x="510.5" y="196.25" as="sourcePoint" />
            <mxPoint x="340" y="311.5" as="targetPoint" />
          </mxGeometry>
        </mxCell>
        <mxCell id="UjBy2W333mnucXlfp_4j-34" value="" style="endArrow=none;html=1;rounded=0;exitX=0;exitY=1;exitDx=0;exitDy=0;entryX=1;entryY=0.5;entryDx=0;entryDy=0;" parent="1" source="l5c5falu1orTu4ODNzKj-3" target="UjBy2W333mnucXlfp_4j-10" edge="1">
          <mxGeometry width="50" height="50" relative="1" as="geometry">
            <mxPoint x="665.5" y="152.5" as="sourcePoint" />
            <mxPoint x="542.5" y="230" as="targetPoint" />
          </mxGeometry>
        </mxCell>
        <mxCell id="UjBy2W333mnucXlfp_4j-35" value="1" style="text;html=1;align=center;verticalAlign=middle;whiteSpace=wrap;rounded=0;" parent="1" vertex="1">
          <mxGeometry x="267.5" y="-740" width="60" height="30" as="geometry" />
        </mxCell>
        <mxCell id="UjBy2W333mnucXlfp_4j-36" value="1" style="text;html=1;align=center;verticalAlign=middle;whiteSpace=wrap;rounded=0;" parent="1" vertex="1">
          <mxGeometry x="272.5" y="-475" width="50" height="20" as="geometry" />
        </mxCell>
        <mxCell id="UjBy2W333mnucXlfp_4j-41" value="1" style="text;html=1;align=center;verticalAlign=middle;whiteSpace=wrap;rounded=0;" parent="1" vertex="1">
          <mxGeometry x="272.5" y="36.25" width="60" height="30" as="geometry" />
        </mxCell>
        <mxCell id="UjBy2W333mnucXlfp_4j-43" value="1" style="text;html=1;align=center;verticalAlign=middle;whiteSpace=wrap;rounded=0;" parent="1" vertex="1">
          <mxGeometry x="335" y="295" width="60" height="30" as="geometry" />
        </mxCell>
        <mxCell id="UjBy2W333mnucXlfp_4j-44" value="1" style="text;html=1;align=center;verticalAlign=middle;whiteSpace=wrap;rounded=0;" parent="1" vertex="1">
          <mxGeometry x="695" y="98.75" width="60" height="30" as="geometry" />
        </mxCell>
        <mxCell id="UjBy2W333mnucXlfp_4j-45" value="1" style="text;html=1;align=center;verticalAlign=middle;whiteSpace=wrap;rounded=0;" parent="1" vertex="1">
          <mxGeometry x="277.5" y="280" width="60" height="30" as="geometry" />
        </mxCell>
        <mxCell id="UjBy2W333mnucXlfp_4j-46" value="1" style="text;html=1;align=center;verticalAlign=middle;whiteSpace=wrap;rounded=0;" parent="1" vertex="1">
          <mxGeometry x="810" y="540" width="60" height="30" as="geometry" />
        </mxCell>
        <mxCell id="UjBy2W333mnucXlfp_4j-47" value="1...*" style="text;html=1;align=center;verticalAlign=middle;whiteSpace=wrap;rounded=0;" parent="1" vertex="1">
          <mxGeometry x="1200" y="-265" width="60" height="30" as="geometry" />
        </mxCell>
        <mxCell id="UjBy2W333mnucXlfp_4j-49" value="1...*" style="text;html=1;align=center;verticalAlign=middle;whiteSpace=wrap;rounded=0;" parent="1" vertex="1">
          <mxGeometry x="1250" y="-173.75" width="60" height="30" as="geometry" />
        </mxCell>
        <mxCell id="UjBy2W333mnucXlfp_4j-52" value="1" style="text;html=1;align=center;verticalAlign=middle;whiteSpace=wrap;rounded=0;" parent="1" vertex="1">
          <mxGeometry x="360" y="-740" width="60" height="30" as="geometry" />
        </mxCell>
        <mxCell id="UjBy2W333mnucXlfp_4j-54" value="1....*" style="text;html=1;align=center;verticalAlign=middle;whiteSpace=wrap;rounded=0;" parent="1" vertex="1">
          <mxGeometry x="340" y="352.5" width="60" height="30" as="geometry" />
        </mxCell>
        <mxCell id="UjBy2W333mnucXlfp_4j-55" value="Views" style="rhombus;whiteSpace=wrap;html=1;" parent="1" vertex="1">
          <mxGeometry x="-410" y="11.25" width="80" height="80" as="geometry" />
        </mxCell>
        <mxCell id="UjBy2W333mnucXlfp_4j-56" value="" style="endArrow=none;html=1;rounded=0;exitX=0;exitY=0.5;exitDx=0;exitDy=0;" parent="1" source="l5c5falu1orTu4ODNzKj-41" edge="1">
          <mxGeometry width="50" height="50" relative="1" as="geometry">
            <mxPoint x="10" y="166.25" as="sourcePoint" />
            <mxPoint x="-110" y="160" as="targetPoint" />
          </mxGeometry>
        </mxCell>
        <mxCell id="UjBy2W333mnucXlfp_4j-57" value="" style="endArrow=none;html=1;rounded=0;exitX=0;exitY=1;exitDx=0;exitDy=0;entryX=0.5;entryY=0;entryDx=0;entryDy=0;" parent="1" source="l5c5falu1orTu4ODNzKj-1" target="l5c5falu1orTu4ODNzKj-41" edge="1">
          <mxGeometry width="50" height="50" relative="1" as="geometry">
            <mxPoint x="237.5" y="111.25" as="sourcePoint" />
            <mxPoint x="89.5" y="112.25" as="targetPoint" />
          </mxGeometry>
        </mxCell>
        <mxCell id="UjBy2W333mnucXlfp_4j-58" value="" style="endArrow=none;html=1;rounded=0;entryX=0;entryY=1;entryDx=0;entryDy=0;exitX=0.5;exitY=0;exitDx=0;exitDy=0;" parent="1" source="UjBy2W333mnucXlfp_4j-55" target="l5c5falu1orTu4ODNzKj-5" edge="1">
          <mxGeometry width="50" height="50" relative="1" as="geometry">
            <mxPoint x="-210" y="-30" as="sourcePoint" />
            <mxPoint x="-160" y="-80" as="targetPoint" />
            <Array as="points">
              <mxPoint x="-370" y="-740" />
            </Array>
          </mxGeometry>
        </mxCell>
        <mxCell id="UjBy2W333mnucXlfp_4j-59" value="" style="endArrow=none;html=1;rounded=0;exitX=0;exitY=1;exitDx=0;exitDy=0;" parent="1" source="l5c5falu1orTu4ODNzKj-18" edge="1">
          <mxGeometry width="50" height="50" relative="1" as="geometry">
            <mxPoint x="-160" y="492.9090465198864" as="sourcePoint" />
            <mxPoint x="-370" y="90" as="targetPoint" />
            <Array as="points">
              <mxPoint x="-370" y="370" />
            </Array>
          </mxGeometry>
        </mxCell>
        <mxCell id="UjBy2W333mnucXlfp_4j-60" value="" style="endArrow=none;html=1;rounded=0;entryX=-0.003;entryY=0.601;entryDx=0;entryDy=0;entryPerimeter=0;exitX=1;exitY=0.25;exitDx=0;exitDy=0;" parent="1" source="l5c5falu1orTu4ODNzKj-5" target="l5c5falu1orTu4ODNzKj-144" edge="1">
          <mxGeometry width="50" height="50" relative="1" as="geometry">
            <mxPoint x="347.5" y="-764" as="sourcePoint" />
            <mxPoint x="402" y="-776" as="targetPoint" />
          </mxGeometry>
        </mxCell>
        <mxCell id="UjBy2W333mnucXlfp_4j-62" value="" style="endArrow=none;html=1;rounded=0;exitX=0.544;exitY=-0.01;exitDx=0;exitDy=0;exitPerimeter=0;" parent="1" source="l5c5falu1orTu4ODNzKj-11" edge="1">
          <mxGeometry width="50" height="50" relative="1" as="geometry">
            <mxPoint x="1260" y="-240" as="sourcePoint" />
            <mxPoint x="1260" y="-510" as="targetPoint" />
          </mxGeometry>
        </mxCell>
        <mxCell id="UjBy2W333mnucXlfp_4j-63" value="1....*" style="text;html=1;align=center;verticalAlign=middle;whiteSpace=wrap;rounded=0;" parent="1" vertex="1">
          <mxGeometry x="97.5" y="340" width="110" height="30" as="geometry" />
        </mxCell>
        <mxCell id="UjBy2W333mnucXlfp_4j-65" value="1" style="text;html=1;align=center;verticalAlign=middle;whiteSpace=wrap;rounded=0;" parent="1" vertex="1">
          <mxGeometry x="262.5" y="-63.75" width="60" height="30" as="geometry" />
        </mxCell>
        <mxCell id="UjBy2W333mnucXlfp_4j-66" value="1.....*" style="text;html=1;align=center;verticalAlign=middle;whiteSpace=wrap;rounded=0;" parent="1" vertex="1">
          <mxGeometry x="272.5" y="-390" width="60" height="30" as="geometry" />
        </mxCell>
        <mxCell id="UjBy2W333mnucXlfp_4j-67" value="1" style="text;html=1;align=center;verticalAlign=middle;whiteSpace=wrap;rounded=0;" parent="1" vertex="1">
          <mxGeometry x="147.5" y="21.25" width="60" height="30" as="geometry" />
        </mxCell>
        <mxCell id="UjBy2W333mnucXlfp_4j-68" value="1....*" style="text;html=1;align=center;verticalAlign=middle;whiteSpace=wrap;rounded=0;" parent="1" vertex="1">
          <mxGeometry x="-100" y="121.25" width="60" height="30" as="geometry" />
        </mxCell>
        <mxCell id="UiSJ4ZJuHDlWWK7wWrZD-1" value="" style="endArrow=none;html=1;rounded=0;entryX=0.595;entryY=0.98;entryDx=0;entryDy=0;entryPerimeter=0;exitX=0.916;exitY=-0.003;exitDx=0;exitDy=0;exitPerimeter=0;" parent="1" target="UiSJ4ZJuHDlWWK7wWrZD-2" edge="1">
          <mxGeometry width="50" height="50" relative="1" as="geometry">
            <mxPoint x="279.81" y="-800" as="sourcePoint" />
            <mxPoint x="279.81" y="-861" as="targetPoint" />
          </mxGeometry>
        </mxCell>
        <mxCell id="UiSJ4ZJuHDlWWK7wWrZD-2" value="" style="ellipse;whiteSpace=wrap;html=1;" parent="1" vertex="1">
          <mxGeometry x="207.5" y="-930" width="80" height="50" as="geometry" />
        </mxCell>
        <mxCell id="UiSJ4ZJuHDlWWK7wWrZD-3" value="P_Lastname" style="text;html=1;align=center;verticalAlign=middle;whiteSpace=wrap;rounded=0;" parent="1" vertex="1">
          <mxGeometry x="217.5" y="-920" width="60" height="30" as="geometry" />
        </mxCell>
        <mxCell id="UiSJ4ZJuHDlWWK7wWrZD-4" value="" style="endArrow=none;html=1;rounded=0;exitX=1;exitY=0.25;exitDx=0;exitDy=0;entryX=0.037;entryY=0.293;entryDx=0;entryDy=0;entryPerimeter=0;" parent="1" target="UiSJ4ZJuHDlWWK7wWrZD-7" edge="1">
          <mxGeometry width="50" height="50" relative="1" as="geometry">
            <mxPoint x="347.5" y="-775" as="sourcePoint" />
            <mxPoint x="430" y="-790" as="targetPoint" />
          </mxGeometry>
        </mxCell>
        <mxCell id="UiSJ4ZJuHDlWWK7wWrZD-5" value="" style="endArrow=none;html=1;rounded=0;exitX=0.996;exitY=0.429;exitDx=0;exitDy=0;exitPerimeter=0;" parent="1" source="l5c5falu1orTu4ODNzKj-5" edge="1">
          <mxGeometry width="50" height="50" relative="1" as="geometry">
            <mxPoint x="353.8399999999999" y="-768.72" as="sourcePoint" />
            <mxPoint x="440" y="-730" as="targetPoint" />
          </mxGeometry>
        </mxCell>
        <mxCell id="UiSJ4ZJuHDlWWK7wWrZD-6" value="" style="endArrow=none;html=1;rounded=0;exitX=1.005;exitY=0.438;exitDx=0;exitDy=0;exitPerimeter=0;entryX=0.307;entryY=0.032;entryDx=0;entryDy=0;entryPerimeter=0;" parent="1" source="l5c5falu1orTu4ODNzKj-5" target="UiSJ4ZJuHDlWWK7wWrZD-18" edge="1">
          <mxGeometry width="50" height="50" relative="1" as="geometry">
            <mxPoint x="347.5" y="-757.72" as="sourcePoint" />
            <mxPoint x="370" y="-690" as="targetPoint" />
          </mxGeometry>
        </mxCell>
        <mxCell id="UiSJ4ZJuHDlWWK7wWrZD-7" value="" style="ellipse;whiteSpace=wrap;html=1;" parent="1" vertex="1">
          <mxGeometry x="452.5" y="-800" width="80" height="50" as="geometry" />
        </mxCell>
        <mxCell id="UiSJ4ZJuHDlWWK7wWrZD-8" value="StreetAddress" style="text;html=1;align=center;verticalAlign=middle;whiteSpace=wrap;rounded=0;" parent="1" vertex="1">
          <mxGeometry x="465" y="-785" width="57.5" height="20" as="geometry" />
        </mxCell>
        <mxCell id="UiSJ4ZJuHDlWWK7wWrZD-14" value="" style="ellipse;whiteSpace=wrap;html=1;" parent="1" vertex="1">
          <mxGeometry x="432.5" y="-740" width="80" height="50" as="geometry" />
        </mxCell>
        <mxCell id="UiSJ4ZJuHDlWWK7wWrZD-15" value="City" style="text;html=1;align=center;verticalAlign=middle;whiteSpace=wrap;rounded=0;" parent="1" vertex="1">
          <mxGeometry x="445" y="-725" width="57.5" height="20" as="geometry" />
        </mxCell>
        <mxCell id="UiSJ4ZJuHDlWWK7wWrZD-18" value="" style="ellipse;whiteSpace=wrap;html=1;" parent="1" vertex="1">
          <mxGeometry x="372.5" y="-690" width="80" height="50" as="geometry" />
        </mxCell>
        <mxCell id="UiSJ4ZJuHDlWWK7wWrZD-19" value="PostCode" style="text;html=1;align=center;verticalAlign=middle;whiteSpace=wrap;rounded=0;" parent="1" vertex="1">
          <mxGeometry x="385" y="-675" width="57.5" height="20" as="geometry" />
        </mxCell>
        <mxCell id="UiSJ4ZJuHDlWWK7wWrZD-21" value="" style="endArrow=none;html=1;rounded=0;exitX=-0.012;exitY=0.327;exitDx=0;exitDy=0;exitPerimeter=0;" parent="1" source="l5c5falu1orTu4ODNzKj-5" edge="1">
          <mxGeometry width="50" height="50" relative="1" as="geometry">
            <mxPoint x="212.25" y="-720" as="sourcePoint" />
            <mxPoint x="130" y="-710" as="targetPoint" />
          </mxGeometry>
        </mxCell>
        <mxCell id="UiSJ4ZJuHDlWWK7wWrZD-22" value="" style="ellipse;whiteSpace=wrap;html=1;" parent="1" vertex="1">
          <mxGeometry x="77.5" y="-710" width="90" height="50" as="geometry" />
        </mxCell>
        <mxCell id="UiSJ4ZJuHDlWWK7wWrZD-23" value="container_email" style="text;html=1;align=center;verticalAlign=middle;whiteSpace=wrap;rounded=0;" parent="1" vertex="1">
          <mxGeometry x="92.5" y="-700" width="60" height="30" as="geometry" />
        </mxCell>
        <mxCell id="UiSJ4ZJuHDlWWK7wWrZD-24" value="" style="endArrow=none;html=1;rounded=0;exitX=0.829;exitY=0.992;exitDx=0;exitDy=0;exitPerimeter=0;" parent="1" edge="1">
          <mxGeometry width="50" height="50" relative="1" as="geometry">
            <mxPoint x="118.61999999999978" y="-835" as="sourcePoint" />
            <mxPoint x="76.38" y="-834.76" as="targetPoint" />
          </mxGeometry>
        </mxCell>
        <mxCell id="UiSJ4ZJuHDlWWK7wWrZD-25" value="" style="endArrow=none;html=1;rounded=0;exitX=1.004;exitY=0.502;exitDx=0;exitDy=0;exitPerimeter=0;" parent="1" source="l5c5falu1orTu4ODNzKj-1" edge="1">
          <mxGeometry width="50" height="50" relative="1" as="geometry">
            <mxPoint x="350" as="sourcePoint" />
            <mxPoint x="390" y="-50" as="targetPoint" />
          </mxGeometry>
        </mxCell>
        <mxCell id="UiSJ4ZJuHDlWWK7wWrZD-28" value="" style="ellipse;whiteSpace=wrap;html=1;" parent="1" vertex="1">
          <mxGeometry x="380" y="-90" width="110" height="50" as="geometry" />
        </mxCell>
        <mxCell id="UiSJ4ZJuHDlWWK7wWrZD-29" value="Doctor_Registration&lt;br&gt;_Number" style="text;html=1;align=center;verticalAlign=middle;whiteSpace=wrap;rounded=0;" parent="1" vertex="1">
          <mxGeometry x="402.5" y="-78.75" width="65" height="30" as="geometry" />
        </mxCell>
        <mxCell id="UiSJ4ZJuHDlWWK7wWrZD-30" value="" style="endArrow=none;html=1;rounded=0;entryX=0.5;entryY=1;entryDx=0;entryDy=0;" parent="1" target="l5c5falu1orTu4ODNzKj-3" edge="1">
          <mxGeometry width="50" height="50" relative="1" as="geometry">
            <mxPoint x="740" y="170" as="sourcePoint" />
            <mxPoint x="757" y="123.25" as="targetPoint" />
          </mxGeometry>
        </mxCell>
        <mxCell id="UiSJ4ZJuHDlWWK7wWrZD-31" value="" style="ellipse;whiteSpace=wrap;html=1;" parent="1" vertex="1">
          <mxGeometry x="660" y="163.13" width="95" height="46.25" as="geometry" />
        </mxCell>
        <mxCell id="UiSJ4ZJuHDlWWK7wWrZD-32" value="Nurse_LAstName" style="text;html=1;align=center;verticalAlign=middle;whiteSpace=wrap;rounded=0;" parent="1" vertex="1">
          <mxGeometry x="680" y="170.63" width="60" height="30" as="geometry" />
        </mxCell>
        <mxCell id="UiSJ4ZJuHDlWWK7wWrZD-33" value="" style="endArrow=none;html=1;rounded=0;entryX=0;entryY=0.5;entryDx=0;entryDy=0;" parent="1" target="l5c5falu1orTu4ODNzKj-3" edge="1">
          <mxGeometry width="50" height="50" relative="1" as="geometry">
            <mxPoint x="700" y="81" as="sourcePoint" />
            <mxPoint x="750" y="80" as="targetPoint" />
          </mxGeometry>
        </mxCell>
        <mxCell id="UiSJ4ZJuHDlWWK7wWrZD-34" value="" style="ellipse;whiteSpace=wrap;html=1;" parent="1" vertex="1">
          <mxGeometry x="600" y="59.379999999999995" width="100" height="43.75" as="geometry" />
        </mxCell>
        <mxCell id="UiSJ4ZJuHDlWWK7wWrZD-35" value="N_password" style="text;html=1;align=center;verticalAlign=middle;whiteSpace=wrap;rounded=0;" parent="1" vertex="1">
          <mxGeometry x="620" y="66.25999999999999" width="60" height="30" as="geometry" />
        </mxCell>
        <mxCell id="UiSJ4ZJuHDlWWK7wWrZD-36" value="" style="endArrow=none;html=1;rounded=0;exitX=0.001;exitY=0.54;exitDx=0;exitDy=0;exitPerimeter=0;" parent="1" source="l5c5falu1orTu4ODNzKj-13" edge="1">
          <mxGeometry width="50" height="50" relative="1" as="geometry">
            <mxPoint x="222.5" y="-440" as="sourcePoint" />
            <mxPoint x="160" y="-440" as="targetPoint" />
          </mxGeometry>
        </mxCell>
        <mxCell id="UiSJ4ZJuHDlWWK7wWrZD-37" value="" style="endArrow=none;html=1;rounded=0;exitX=-0.003;exitY=0.541;exitDx=0;exitDy=0;exitPerimeter=0;" parent="1" source="l5c5falu1orTu4ODNzKj-13" edge="1">
          <mxGeometry width="50" height="50" relative="1" as="geometry">
            <mxPoint x="220" y="-420" as="sourcePoint" />
            <mxPoint x="160" y="-400" as="targetPoint" />
          </mxGeometry>
        </mxCell>
        <mxCell id="UiSJ4ZJuHDlWWK7wWrZD-38" value="" style="endArrow=none;html=1;rounded=0;exitX=-0.002;exitY=0.544;exitDx=0;exitDy=0;exitPerimeter=0;" parent="1" source="l5c5falu1orTu4ODNzKj-13" edge="1">
          <mxGeometry width="50" height="50" relative="1" as="geometry">
            <mxPoint x="220" y="-420" as="sourcePoint" />
            <mxPoint x="190" y="-360" as="targetPoint" />
          </mxGeometry>
        </mxCell>
        <mxCell id="UiSJ4ZJuHDlWWK7wWrZD-39" value="" style="ellipse;whiteSpace=wrap;html=1;" parent="1" vertex="1">
          <mxGeometry x="82.5" y="-470" width="80" height="50" as="geometry" />
        </mxCell>
        <mxCell id="UiSJ4ZJuHDlWWK7wWrZD-40" value="PatientID" style="text;html=1;align=center;verticalAlign=middle;whiteSpace=wrap;rounded=0;" parent="1" vertex="1">
          <mxGeometry x="92.5" y="-460" width="60" height="30" as="geometry" />
        </mxCell>
        <mxCell id="UiSJ4ZJuHDlWWK7wWrZD-41" value="" style="ellipse;whiteSpace=wrap;html=1;" parent="1" vertex="1">
          <mxGeometry x="87.5" y="-410" width="80" height="50" as="geometry" />
        </mxCell>
        <mxCell id="UiSJ4ZJuHDlWWK7wWrZD-42" value="DoctorID" style="text;html=1;align=center;verticalAlign=middle;whiteSpace=wrap;rounded=0;" parent="1" vertex="1">
          <mxGeometry x="97.5" y="-400" width="60" height="30" as="geometry" />
        </mxCell>
        <mxCell id="UiSJ4ZJuHDlWWK7wWrZD-43" value="" style="ellipse;whiteSpace=wrap;html=1;" parent="1" vertex="1">
          <mxGeometry x="142.5" y="-360" width="80" height="50" as="geometry" />
        </mxCell>
        <mxCell id="UiSJ4ZJuHDlWWK7wWrZD-44" value="SlotID" style="text;html=1;align=center;verticalAlign=middle;whiteSpace=wrap;rounded=0;" parent="1" vertex="1">
          <mxGeometry x="152.5" y="-350" width="60" height="30" as="geometry" />
        </mxCell>
        <mxCell id="UiSJ4ZJuHDlWWK7wWrZD-45" value="" style="endArrow=none;html=1;rounded=0;exitX=1;exitY=0.417;exitDx=0;exitDy=0;exitPerimeter=0;" parent="1" source="l5c5falu1orTu4ODNzKj-13" edge="1">
          <mxGeometry width="50" height="50" relative="1" as="geometry">
            <mxPoint x="342.5" y="-440" as="sourcePoint" />
            <mxPoint x="390" y="-470" as="targetPoint" />
          </mxGeometry>
        </mxCell>
        <mxCell id="UiSJ4ZJuHDlWWK7wWrZD-46" value="" style="endArrow=none;html=1;rounded=0;exitX=0.998;exitY=0.417;exitDx=0;exitDy=0;exitPerimeter=0;" parent="1" source="l5c5falu1orTu4ODNzKj-13" edge="1">
          <mxGeometry width="50" height="50" relative="1" as="geometry">
            <mxPoint x="353" y="-420" as="sourcePoint" />
            <mxPoint x="400" y="-440" as="targetPoint" />
          </mxGeometry>
        </mxCell>
        <mxCell id="UiSJ4ZJuHDlWWK7wWrZD-47" value="" style="endArrow=none;html=1;rounded=0;exitX=1.009;exitY=0.413;exitDx=0;exitDy=0;exitPerimeter=0;" parent="1" source="l5c5falu1orTu4ODNzKj-13" edge="1">
          <mxGeometry width="50" height="50" relative="1" as="geometry">
            <mxPoint x="352" y="-420" as="sourcePoint" />
            <mxPoint x="390" y="-380" as="targetPoint" />
          </mxGeometry>
        </mxCell>
        <mxCell id="UiSJ4ZJuHDlWWK7wWrZD-48" value="" style="ellipse;whiteSpace=wrap;html=1;" parent="1" vertex="1">
          <mxGeometry x="382.5" y="-510" width="80" height="50" as="geometry" />
        </mxCell>
        <mxCell id="UiSJ4ZJuHDlWWK7wWrZD-49" value="CreatedAt" style="text;html=1;align=center;verticalAlign=middle;whiteSpace=wrap;rounded=0;" parent="1" vertex="1">
          <mxGeometry x="392.5" y="-500" width="60" height="30" as="geometry" />
        </mxCell>
        <mxCell id="UiSJ4ZJuHDlWWK7wWrZD-50" value="" style="ellipse;whiteSpace=wrap;html=1;" parent="1" vertex="1">
          <mxGeometry x="395" y="-455" width="80" height="50" as="geometry" />
        </mxCell>
        <mxCell id="UiSJ4ZJuHDlWWK7wWrZD-51" value="DiseaseType" style="text;html=1;align=center;verticalAlign=middle;whiteSpace=wrap;rounded=0;" parent="1" vertex="1">
          <mxGeometry x="405" y="-445" width="60" height="30" as="geometry" />
        </mxCell>
        <mxCell id="UiSJ4ZJuHDlWWK7wWrZD-52" value="" style="ellipse;whiteSpace=wrap;html=1;" parent="1" vertex="1">
          <mxGeometry x="360" y="-390" width="80" height="50" as="geometry" />
        </mxCell>
        <mxCell id="UiSJ4ZJuHDlWWK7wWrZD-53" value="Disease&lt;br&gt;Description" style="text;html=1;align=center;verticalAlign=middle;whiteSpace=wrap;rounded=0;" parent="1" vertex="1">
          <mxGeometry x="370" y="-380" width="60" height="30" as="geometry" />
        </mxCell>
        <mxCell id="UiSJ4ZJuHDlWWK7wWrZD-54" value="" style="endArrow=none;html=1;rounded=0;entryX=1.002;entryY=0.62;entryDx=0;entryDy=0;entryPerimeter=0;" parent="1" target="l5c5falu1orTu4ODNzKj-11" edge="1">
          <mxGeometry width="50" height="50" relative="1" as="geometry">
            <mxPoint x="1380" y="-230" as="sourcePoint" />
            <mxPoint x="1316" y="-213.75" as="targetPoint" />
          </mxGeometry>
        </mxCell>
        <mxCell id="UiSJ4ZJuHDlWWK7wWrZD-55" value="" style="ellipse;whiteSpace=wrap;html=1;" parent="1" vertex="1">
          <mxGeometry x="1375" y="-260" width="80" height="50" as="geometry" />
        </mxCell>
        <mxCell id="UiSJ4ZJuHDlWWK7wWrZD-56" value="side_effects" style="text;html=1;align=center;verticalAlign=middle;whiteSpace=wrap;rounded=0;" parent="1" vertex="1">
          <mxGeometry x="1385" y="-250" width="60" height="30" as="geometry" />
        </mxCell>
        <mxCell id="UiSJ4ZJuHDlWWK7wWrZD-57" value="" style="endArrow=none;html=1;rounded=0;entryX=1.002;entryY=0.62;entryDx=0;entryDy=0;entryPerimeter=0;exitX=0.261;exitY=0.937;exitDx=0;exitDy=0;exitPerimeter=0;" parent="1" source="UiSJ4ZJuHDlWWK7wWrZD-68" edge="1">
          <mxGeometry width="50" height="50" relative="1" as="geometry">
            <mxPoint x="1350" y="-270" as="sourcePoint" />
            <mxPoint x="1315" y="-233.75" as="targetPoint" />
          </mxGeometry>
        </mxCell>
        <mxCell id="UiSJ4ZJuHDlWWK7wWrZD-58" value="" style="endArrow=none;html=1;rounded=0;entryX=1.002;entryY=0.62;entryDx=0;entryDy=0;entryPerimeter=0;exitX=0.388;exitY=0.972;exitDx=0;exitDy=0;exitPerimeter=0;" parent="1" source="UiSJ4ZJuHDlWWK7wWrZD-70" edge="1">
          <mxGeometry width="50" height="50" relative="1" as="geometry">
            <mxPoint x="1290" y="-270" as="sourcePoint" />
            <mxPoint x="1290" y="-233.75" as="targetPoint" />
          </mxGeometry>
        </mxCell>
        <mxCell id="UiSJ4ZJuHDlWWK7wWrZD-59" value="" style="endArrow=none;html=1;rounded=0;entryX=-0.001;entryY=0.554;entryDx=0;entryDy=0;entryPerimeter=0;exitX=1.001;exitY=0.455;exitDx=0;exitDy=0;exitPerimeter=0;" parent="1" source="UiSJ4ZJuHDlWWK7wWrZD-64" target="l5c5falu1orTu4ODNzKj-11" edge="1">
          <mxGeometry width="50" height="50" relative="1" as="geometry">
            <mxPoint x="1140" y="-190" as="sourcePoint" />
            <mxPoint x="1185" y="-210" as="targetPoint" />
          </mxGeometry>
        </mxCell>
        <mxCell id="UiSJ4ZJuHDlWWK7wWrZD-60" value="" style="endArrow=none;html=1;rounded=0;entryX=-0.003;entryY=0.553;entryDx=0;entryDy=0;entryPerimeter=0;exitX=1.004;exitY=0.569;exitDx=0;exitDy=0;exitPerimeter=0;" parent="1" source="UiSJ4ZJuHDlWWK7wWrZD-62" target="l5c5falu1orTu4ODNzKj-11" edge="1">
          <mxGeometry width="50" height="50" relative="1" as="geometry">
            <mxPoint x="1141" y="-218.75" as="sourcePoint" />
            <mxPoint x="1195" y="-218.75" as="targetPoint" />
          </mxGeometry>
        </mxCell>
        <mxCell id="UiSJ4ZJuHDlWWK7wWrZD-61" value="" style="endArrow=none;html=1;rounded=0;entryX=-0.003;entryY=0.556;entryDx=0;entryDy=0;entryPerimeter=0;exitX=1;exitY=0;exitDx=0;exitDy=0;" parent="1" source="UiSJ4ZJuHDlWWK7wWrZD-66" target="l5c5falu1orTu4ODNzKj-11" edge="1">
          <mxGeometry width="50" height="50" relative="1" as="geometry">
            <mxPoint x="1150" y="-170" as="sourcePoint" />
            <mxPoint x="1205" y="-191" as="targetPoint" />
          </mxGeometry>
        </mxCell>
        <mxCell id="UiSJ4ZJuHDlWWK7wWrZD-62" value="" style="ellipse;whiteSpace=wrap;html=1;" parent="1" vertex="1">
          <mxGeometry x="1090" y="-308.75" width="80" height="50" as="geometry" />
        </mxCell>
        <mxCell id="UiSJ4ZJuHDlWWK7wWrZD-63" value="medicine_name" style="text;html=1;align=center;verticalAlign=middle;whiteSpace=wrap;rounded=0;" parent="1" vertex="1">
          <mxGeometry x="1100" y="-298.75" width="60" height="30" as="geometry" />
        </mxCell>
        <mxCell id="UiSJ4ZJuHDlWWK7wWrZD-64" value="" style="ellipse;whiteSpace=wrap;html=1;" parent="1" vertex="1">
          <mxGeometry x="1010" y="-253.75" width="80" height="50" as="geometry" />
        </mxCell>
        <mxCell id="UiSJ4ZJuHDlWWK7wWrZD-65" value="disease_id" style="text;html=1;align=center;verticalAlign=middle;whiteSpace=wrap;rounded=0;" parent="1" vertex="1">
          <mxGeometry x="1020" y="-243.75" width="60" height="30" as="geometry" />
        </mxCell>
        <mxCell id="UiSJ4ZJuHDlWWK7wWrZD-66" value="" style="ellipse;whiteSpace=wrap;html=1;" parent="1" vertex="1">
          <mxGeometry x="1060" y="-203.75" width="80" height="50" as="geometry" />
        </mxCell>
        <mxCell id="UiSJ4ZJuHDlWWK7wWrZD-67" value="dosage" style="text;html=1;align=center;verticalAlign=middle;whiteSpace=wrap;rounded=0;" parent="1" vertex="1">
          <mxGeometry x="1070" y="-193.75" width="60" height="30" as="geometry" />
        </mxCell>
        <mxCell id="UiSJ4ZJuHDlWWK7wWrZD-68" value="" style="ellipse;whiteSpace=wrap;html=1;" parent="1" vertex="1">
          <mxGeometry x="1350" y="-330" width="80" height="50" as="geometry" />
        </mxCell>
        <mxCell id="UiSJ4ZJuHDlWWK7wWrZD-69" value="manufacturer" style="text;html=1;align=center;verticalAlign=middle;whiteSpace=wrap;rounded=0;" parent="1" vertex="1">
          <mxGeometry x="1360" y="-320" width="60" height="30" as="geometry" />
        </mxCell>
        <mxCell id="UiSJ4ZJuHDlWWK7wWrZD-70" value="" style="ellipse;whiteSpace=wrap;html=1;" parent="1" vertex="1">
          <mxGeometry x="1270" y="-340" width="80" height="50" as="geometry" />
        </mxCell>
        <mxCell id="UiSJ4ZJuHDlWWK7wWrZD-71" value="form" style="text;html=1;align=center;verticalAlign=middle;whiteSpace=wrap;rounded=0;" parent="1" vertex="1">
          <mxGeometry x="1280" y="-330" width="60" height="30" as="geometry" />
        </mxCell>
        <mxCell id="UiSJ4ZJuHDlWWK7wWrZD-72" value="" style="endArrow=none;html=1;rounded=0;exitX=0.5;exitY=0;exitDx=0;exitDy=0;" parent="1" source="UiSJ4ZJuHDlWWK7wWrZD-74" edge="1">
          <mxGeometry width="50" height="50" relative="1" as="geometry">
            <mxPoint x="730" y="649" as="sourcePoint" />
            <mxPoint x="780" y="590" as="targetPoint" />
          </mxGeometry>
        </mxCell>
        <mxCell id="UiSJ4ZJuHDlWWK7wWrZD-73" value="" style="endArrow=none;html=1;rounded=0;exitX=0.5;exitY=0;exitDx=0;exitDy=0;" parent="1" source="UiSJ4ZJuHDlWWK7wWrZD-76" edge="1">
          <mxGeometry width="50" height="50" relative="1" as="geometry">
            <mxPoint x="760" y="680" as="sourcePoint" />
            <mxPoint x="780" y="630" as="targetPoint" />
          </mxGeometry>
        </mxCell>
        <mxCell id="UiSJ4ZJuHDlWWK7wWrZD-74" value="" style="ellipse;whiteSpace=wrap;html=1;" parent="1" vertex="1">
          <mxGeometry x="650" y="650" width="80" height="50" as="geometry" />
        </mxCell>
        <mxCell id="UiSJ4ZJuHDlWWK7wWrZD-75" value="postcode" style="text;html=1;align=center;verticalAlign=middle;whiteSpace=wrap;rounded=0;" parent="1" vertex="1">
          <mxGeometry x="660" y="660" width="60" height="30" as="geometry" />
        </mxCell>
        <mxCell id="UiSJ4ZJuHDlWWK7wWrZD-76" value="" style="ellipse;whiteSpace=wrap;html=1;" parent="1" vertex="1">
          <mxGeometry x="695" y="700" width="80" height="50" as="geometry" />
        </mxCell>
        <mxCell id="UiSJ4ZJuHDlWWK7wWrZD-77" value="contact_&lt;br&gt;number" style="text;html=1;align=center;verticalAlign=middle;whiteSpace=wrap;rounded=0;" parent="1" vertex="1">
          <mxGeometry x="705" y="710" width="60" height="30" as="geometry" />
        </mxCell>
        <mxCell id="UiSJ4ZJuHDlWWK7wWrZD-78" value="" style="ellipse;whiteSpace=wrap;html=1;" parent="1" vertex="1">
          <mxGeometry x="1000" y="580" width="80" height="50" as="geometry" />
        </mxCell>
        <mxCell id="UiSJ4ZJuHDlWWK7wWrZD-79" value="opening_&lt;br&gt;time" style="text;html=1;align=center;verticalAlign=middle;whiteSpace=wrap;rounded=0;" parent="1" vertex="1">
          <mxGeometry x="1010" y="590" width="60" height="30" as="geometry" />
        </mxCell>
        <mxCell id="UiSJ4ZJuHDlWWK7wWrZD-80" value="" style="ellipse;whiteSpace=wrap;html=1;" parent="1" vertex="1">
          <mxGeometry x="1010" y="640" width="80" height="50" as="geometry" />
        </mxCell>
        <mxCell id="UiSJ4ZJuHDlWWK7wWrZD-81" value="closing_&lt;br&gt;time" style="text;html=1;align=center;verticalAlign=middle;whiteSpace=wrap;rounded=0;" parent="1" vertex="1">
          <mxGeometry x="1020" y="650" width="60" height="30" as="geometry" />
        </mxCell>
        <mxCell id="UiSJ4ZJuHDlWWK7wWrZD-82" value="" style="endArrow=none;html=1;rounded=0;exitX=0.393;exitY=0.017;exitDx=0;exitDy=0;entryX=0.055;entryY=1.003;entryDx=0;entryDy=0;entryPerimeter=0;exitPerimeter=0;" parent="1" source="l5c5falu1orTu4ODNzKj-165" edge="1">
          <mxGeometry width="50" height="50" relative="1" as="geometry">
            <mxPoint x="885" y="700" as="sourcePoint" />
            <mxPoint x="884.9999999999999" y="630.1800000000001" as="targetPoint" />
          </mxGeometry>
        </mxCell>
        <mxCell id="UiSJ4ZJuHDlWWK7wWrZD-83" value="" style="endArrow=none;html=1;rounded=0;exitX=0;exitY=0.5;exitDx=0;exitDy=0;entryX=1;entryY=0.5;entryDx=0;entryDy=0;" parent="1" source="UiSJ4ZJuHDlWWK7wWrZD-78" target="l5c5falu1orTu4ODNzKj-9" edge="1">
          <mxGeometry width="50" height="50" relative="1" as="geometry">
            <mxPoint x="920" y="660" as="sourcePoint" />
            <mxPoint x="919.9999999999999" y="590.1800000000001" as="targetPoint" />
          </mxGeometry>
        </mxCell>
        <mxCell id="UiSJ4ZJuHDlWWK7wWrZD-84" value="" style="endArrow=none;html=1;rounded=0;exitX=0;exitY=0.5;exitDx=0;exitDy=0;entryX=1;entryY=0.5;entryDx=0;entryDy=0;" parent="1" source="UiSJ4ZJuHDlWWK7wWrZD-80" target="l5c5falu1orTu4ODNzKj-9" edge="1">
          <mxGeometry width="50" height="50" relative="1" as="geometry">
            <mxPoint x="1010" y="615" as="sourcePoint" />
            <mxPoint x="910" y="610" as="targetPoint" />
          </mxGeometry>
        </mxCell>
        <mxCell id="UiSJ4ZJuHDlWWK7wWrZD-85" value="" style="rounded=0;whiteSpace=wrap;html=1;" parent="1" vertex="1">
          <mxGeometry x="-600" y="-80" width="120" height="60" as="geometry" />
        </mxCell>
        <mxCell id="UiSJ4ZJuHDlWWK7wWrZD-86" value="Slots" style="text;html=1;align=center;verticalAlign=middle;whiteSpace=wrap;rounded=0;" parent="1" vertex="1">
          <mxGeometry x="-570" y="-65" width="60" height="30" as="geometry" />
        </mxCell>
        <mxCell id="UiSJ4ZJuHDlWWK7wWrZD-87" value="" style="ellipse;whiteSpace=wrap;html=1;" parent="1" vertex="1">
          <mxGeometry x="-630" y="-170" width="80" height="50" as="geometry" />
        </mxCell>
        <mxCell id="UiSJ4ZJuHDlWWK7wWrZD-88" value="SlotID" style="text;html=1;align=center;verticalAlign=middle;whiteSpace=wrap;rounded=0;" parent="1" vertex="1">
          <mxGeometry x="-620" y="-160" width="60" height="30" as="geometry" />
        </mxCell>
        <mxCell id="UiSJ4ZJuHDlWWK7wWrZD-89" value="" style="ellipse;whiteSpace=wrap;html=1;" parent="1" vertex="1">
          <mxGeometry x="-515" y="-170" width="80" height="50" as="geometry" />
        </mxCell>
        <mxCell id="UiSJ4ZJuHDlWWK7wWrZD-90" value="StartTime" style="text;html=1;align=center;verticalAlign=middle;whiteSpace=wrap;rounded=0;" parent="1" vertex="1">
          <mxGeometry x="-505" y="-160" width="60" height="30" as="geometry" />
        </mxCell>
        <mxCell id="UiSJ4ZJuHDlWWK7wWrZD-91" value="" style="endArrow=none;html=1;rounded=0;entryX=0.5;entryY=1;entryDx=0;entryDy=0;" parent="1" target="UiSJ4ZJuHDlWWK7wWrZD-87" edge="1">
          <mxGeometry width="50" height="50" relative="1" as="geometry">
            <mxPoint x="-550" y="-80" as="sourcePoint" />
            <mxPoint x="-500" y="-130" as="targetPoint" />
          </mxGeometry>
        </mxCell>
        <mxCell id="UiSJ4ZJuHDlWWK7wWrZD-92" value="" style="endArrow=none;html=1;rounded=0;entryX=0.381;entryY=0.991;entryDx=0;entryDy=0;exitX=0.413;exitY=-0.005;exitDx=0;exitDy=0;exitPerimeter=0;entryPerimeter=0;" parent="1" source="UiSJ4ZJuHDlWWK7wWrZD-85" target="UiSJ4ZJuHDlWWK7wWrZD-89" edge="1">
          <mxGeometry width="50" height="50" relative="1" as="geometry">
            <mxPoint x="-445" y="-80" as="sourcePoint" />
            <mxPoint x="-485" y="-120" as="targetPoint" />
          </mxGeometry>
        </mxCell>
        <mxCell id="UiSJ4ZJuHDlWWK7wWrZD-93" value="" style="endArrow=none;html=1;rounded=0;entryX=0.57;entryY=1.008;entryDx=0;entryDy=0;entryPerimeter=0;exitX=0.5;exitY=0;exitDx=0;exitDy=0;" parent="1" source="UiSJ4ZJuHDlWWK7wWrZD-98" target="UiSJ4ZJuHDlWWK7wWrZD-85" edge="1">
          <mxGeometry width="50" height="50" relative="1" as="geometry">
            <mxPoint x="-535" y="50" as="sourcePoint" />
            <mxPoint x="-535" y="-20" as="targetPoint" />
          </mxGeometry>
        </mxCell>
        <mxCell id="UiSJ4ZJuHDlWWK7wWrZD-98" value="" style="ellipse;whiteSpace=wrap;html=1;" parent="1" vertex="1">
          <mxGeometry x="-570" y="48.75" width="80" height="50" as="geometry" />
        </mxCell>
        <mxCell id="UiSJ4ZJuHDlWWK7wWrZD-99" value="EndTime" style="text;html=1;align=center;verticalAlign=middle;whiteSpace=wrap;rounded=0;" parent="1" vertex="1">
          <mxGeometry x="-560" y="58.75" width="60" height="30" as="geometry" />
        </mxCell>
        <mxCell id="UiSJ4ZJuHDlWWK7wWrZD-100" value="" style="rounded=0;whiteSpace=wrap;html=1;" parent="1" vertex="1">
          <mxGeometry x="-860" y="-75.62" width="120" height="60" as="geometry" />
        </mxCell>
        <mxCell id="UiSJ4ZJuHDlWWK7wWrZD-101" value="NurseAvailability" style="text;html=1;align=center;verticalAlign=middle;whiteSpace=wrap;rounded=0;" parent="1" vertex="1">
          <mxGeometry x="-830" y="-60.62" width="60" height="30" as="geometry" />
        </mxCell>
        <mxCell id="UiSJ4ZJuHDlWWK7wWrZD-102" value="" style="ellipse;whiteSpace=wrap;html=1;" parent="1" vertex="1">
          <mxGeometry x="-850" y="-170" width="80" height="50" as="geometry" />
        </mxCell>
        <mxCell id="UiSJ4ZJuHDlWWK7wWrZD-103" value="AvailabilityID" style="text;html=1;align=center;verticalAlign=middle;whiteSpace=wrap;rounded=0;" parent="1" vertex="1">
          <mxGeometry x="-840" y="-160" width="60" height="30" as="geometry" />
        </mxCell>
        <mxCell id="UiSJ4ZJuHDlWWK7wWrZD-106" value="" style="endArrow=none;html=1;rounded=0;entryX=0.5;entryY=1;entryDx=0;entryDy=0;" parent="1" target="UiSJ4ZJuHDlWWK7wWrZD-102" edge="1">
          <mxGeometry width="50" height="50" relative="1" as="geometry">
            <mxPoint x="-810" y="-75.62" as="sourcePoint" />
            <mxPoint x="-760" y="-125.62" as="targetPoint" />
          </mxGeometry>
        </mxCell>
        <mxCell id="UiSJ4ZJuHDlWWK7wWrZD-108" value="" style="endArrow=none;html=1;rounded=0;entryX=0.57;entryY=1.008;entryDx=0;entryDy=0;entryPerimeter=0;exitX=0.5;exitY=0;exitDx=0;exitDy=0;" parent="1" source="UiSJ4ZJuHDlWWK7wWrZD-109" target="UiSJ4ZJuHDlWWK7wWrZD-100" edge="1">
          <mxGeometry width="50" height="50" relative="1" as="geometry">
            <mxPoint x="-795" y="54.38" as="sourcePoint" />
            <mxPoint x="-795" y="-15.620000000000001" as="targetPoint" />
          </mxGeometry>
        </mxCell>
        <mxCell id="UiSJ4ZJuHDlWWK7wWrZD-109" value="" style="ellipse;whiteSpace=wrap;html=1;" parent="1" vertex="1">
          <mxGeometry x="-830" y="53.13" width="80" height="50" as="geometry" />
        </mxCell>
        <mxCell id="UiSJ4ZJuHDlWWK7wWrZD-110" value="CreatedAt" style="text;html=1;align=center;verticalAlign=middle;whiteSpace=wrap;rounded=0;" parent="1" vertex="1">
          <mxGeometry x="-820" y="63.13" width="60" height="30" as="geometry" />
        </mxCell>
        <mxCell id="UiSJ4ZJuHDlWWK7wWrZD-111" value="" style="ellipse;whiteSpace=wrap;html=1;" parent="1" vertex="1">
          <mxGeometry x="-930" y="51.25" width="80" height="50" as="geometry" />
        </mxCell>
        <mxCell id="UiSJ4ZJuHDlWWK7wWrZD-112" value="SlotID" style="text;html=1;align=center;verticalAlign=middle;whiteSpace=wrap;rounded=0;" parent="1" vertex="1">
          <mxGeometry x="-920" y="61.24999999999999" width="60" height="30" as="geometry" />
        </mxCell>
        <mxCell id="UiSJ4ZJuHDlWWK7wWrZD-115" value="" style="ellipse;whiteSpace=wrap;html=1;" parent="1" vertex="1">
          <mxGeometry x="-1000" y="-63.75" width="80" height="50" as="geometry" />
        </mxCell>
        <mxCell id="UiSJ4ZJuHDlWWK7wWrZD-116" value="NurseID" style="text;html=1;align=center;verticalAlign=middle;whiteSpace=wrap;rounded=0;" parent="1" vertex="1">
          <mxGeometry x="-990" y="-53.75" width="60" height="30" as="geometry" />
        </mxCell>
        <mxCell id="UiSJ4ZJuHDlWWK7wWrZD-121" value="" style="endArrow=none;html=1;rounded=0;entryX=0.567;entryY=1.015;entryDx=0;entryDy=0;entryPerimeter=0;exitX=1;exitY=0;exitDx=0;exitDy=0;" parent="1" source="UiSJ4ZJuHDlWWK7wWrZD-111" target="UiSJ4ZJuHDlWWK7wWrZD-100" edge="1">
          <mxGeometry width="50" height="50" relative="1" as="geometry">
            <mxPoint x="-878" y="48" as="sourcePoint" />
            <mxPoint x="-880" y="-20" as="targetPoint" />
          </mxGeometry>
        </mxCell>
        <mxCell id="UiSJ4ZJuHDlWWK7wWrZD-123" value="" style="endArrow=none;html=1;rounded=0;entryX=0.578;entryY=1.005;entryDx=0;entryDy=0;entryPerimeter=0;exitX=1;exitY=0;exitDx=0;exitDy=0;" parent="1" target="UiSJ4ZJuHDlWWK7wWrZD-100" edge="1">
          <mxGeometry width="50" height="50" relative="1" as="geometry">
            <mxPoint x="-691.9240139591582" y="48.74700697957903" as="sourcePoint" />
            <mxPoint x="-627.5" y="4.219999999999999" as="targetPoint" />
          </mxGeometry>
        </mxCell>
        <mxCell id="UiSJ4ZJuHDlWWK7wWrZD-124" value="" style="endArrow=none;html=1;rounded=0;exitX=1;exitY=0.5;exitDx=0;exitDy=0;entryX=-0.001;entryY=0.602;entryDx=0;entryDy=0;entryPerimeter=0;" parent="1" source="UiSJ4ZJuHDlWWK7wWrZD-115" target="UiSJ4ZJuHDlWWK7wWrZD-100" edge="1">
          <mxGeometry width="50" height="50" relative="1" as="geometry">
            <mxPoint x="-930" y="-60.620000000000005" as="sourcePoint" />
            <mxPoint x="-870" y="-50" as="targetPoint" />
          </mxGeometry>
        </mxCell>
        <mxCell id="UiSJ4ZJuHDlWWK7wWrZD-126" value="" style="rounded=0;whiteSpace=wrap;html=1;" parent="1" vertex="1">
          <mxGeometry x="-1280" y="-42.5" width="120" height="60" as="geometry" />
        </mxCell>
        <mxCell id="UiSJ4ZJuHDlWWK7wWrZD-127" value="DoctorAvailability" style="text;html=1;align=center;verticalAlign=middle;whiteSpace=wrap;rounded=0;" parent="1" vertex="1">
          <mxGeometry x="-1250" y="-27.499999999999996" width="60" height="30" as="geometry" />
        </mxCell>
        <mxCell id="UiSJ4ZJuHDlWWK7wWrZD-128" value="" style="ellipse;whiteSpace=wrap;html=1;" parent="1" vertex="1">
          <mxGeometry x="-1310" y="-132.5" width="80" height="50" as="geometry" />
        </mxCell>
        <mxCell id="UiSJ4ZJuHDlWWK7wWrZD-129" value="AvailabilityID" style="text;html=1;align=center;verticalAlign=middle;whiteSpace=wrap;rounded=0;" parent="1" vertex="1">
          <mxGeometry x="-1300" y="-122.5" width="60" height="30" as="geometry" />
        </mxCell>
        <mxCell id="UiSJ4ZJuHDlWWK7wWrZD-130" value="" style="ellipse;whiteSpace=wrap;html=1;" parent="1" vertex="1">
          <mxGeometry x="-1195" y="-132.5" width="80" height="50" as="geometry" />
        </mxCell>
        <mxCell id="UiSJ4ZJuHDlWWK7wWrZD-131" value="DoctorID" style="text;html=1;align=center;verticalAlign=middle;whiteSpace=wrap;rounded=0;" parent="1" vertex="1">
          <mxGeometry x="-1185" y="-122.5" width="60" height="30" as="geometry" />
        </mxCell>
        <mxCell id="UiSJ4ZJuHDlWWK7wWrZD-132" value="" style="endArrow=none;html=1;rounded=0;entryX=0.5;entryY=1;entryDx=0;entryDy=0;" parent="1" target="UiSJ4ZJuHDlWWK7wWrZD-128" edge="1">
          <mxGeometry width="50" height="50" relative="1" as="geometry">
            <mxPoint x="-1230" y="-42.5" as="sourcePoint" />
            <mxPoint x="-1180" y="-92.5" as="targetPoint" />
          </mxGeometry>
        </mxCell>
        <mxCell id="UiSJ4ZJuHDlWWK7wWrZD-133" value="" style="endArrow=none;html=1;rounded=0;entryX=0.381;entryY=0.991;entryDx=0;entryDy=0;exitX=0.413;exitY=-0.005;exitDx=0;exitDy=0;exitPerimeter=0;entryPerimeter=0;" parent="1" source="UiSJ4ZJuHDlWWK7wWrZD-126" target="UiSJ4ZJuHDlWWK7wWrZD-130" edge="1">
          <mxGeometry width="50" height="50" relative="1" as="geometry">
            <mxPoint x="-1125" y="-42.5" as="sourcePoint" />
            <mxPoint x="-1165" y="-82.5" as="targetPoint" />
          </mxGeometry>
        </mxCell>
        <mxCell id="UiSJ4ZJuHDlWWK7wWrZD-134" value="" style="endArrow=none;html=1;rounded=0;entryX=0.57;entryY=1.008;entryDx=0;entryDy=0;entryPerimeter=0;exitX=0.5;exitY=0;exitDx=0;exitDy=0;" parent="1" source="UiSJ4ZJuHDlWWK7wWrZD-135" target="UiSJ4ZJuHDlWWK7wWrZD-126" edge="1">
          <mxGeometry width="50" height="50" relative="1" as="geometry">
            <mxPoint x="-1215" y="87.5" as="sourcePoint" />
            <mxPoint x="-1215" y="17.5" as="targetPoint" />
          </mxGeometry>
        </mxCell>
        <mxCell id="UiSJ4ZJuHDlWWK7wWrZD-135" value="" style="ellipse;whiteSpace=wrap;html=1;" parent="1" vertex="1">
          <mxGeometry x="-1250" y="86.25" width="80" height="50" as="geometry" />
        </mxCell>
        <mxCell id="UiSJ4ZJuHDlWWK7wWrZD-136" value="SlotID" style="text;html=1;align=center;verticalAlign=middle;whiteSpace=wrap;rounded=0;" parent="1" vertex="1">
          <mxGeometry x="-1240" y="96.25" width="60" height="30" as="geometry" />
        </mxCell>
        <mxCell id="UiSJ4ZJuHDlWWK7wWrZD-137" value="" style="ellipse;whiteSpace=wrap;html=1;" parent="1" vertex="1">
          <mxGeometry x="-1350" y="84.37" width="80" height="50" as="geometry" />
        </mxCell>
        <mxCell id="UiSJ4ZJuHDlWWK7wWrZD-138" value="Date" style="text;html=1;align=center;verticalAlign=middle;whiteSpace=wrap;rounded=0;" parent="1" vertex="1">
          <mxGeometry x="-1340" y="94.37" width="60" height="30" as="geometry" />
        </mxCell>
        <mxCell id="UiSJ4ZJuHDlWWK7wWrZD-139" value="" style="ellipse;whiteSpace=wrap;html=1;" parent="1" vertex="1">
          <mxGeometry x="-1150" y="86.25" width="80" height="50" as="geometry" />
        </mxCell>
        <mxCell id="UiSJ4ZJuHDlWWK7wWrZD-140" value="CreatedAt" style="text;html=1;align=center;verticalAlign=middle;whiteSpace=wrap;rounded=0;" parent="1" vertex="1">
          <mxGeometry x="-1140" y="96.25" width="60" height="30" as="geometry" />
        </mxCell>
        <mxCell id="UiSJ4ZJuHDlWWK7wWrZD-147" value="" style="endArrow=none;html=1;rounded=0;entryX=0.567;entryY=1.015;entryDx=0;entryDy=0;entryPerimeter=0;exitX=1;exitY=0;exitDx=0;exitDy=0;" parent="1" source="UiSJ4ZJuHDlWWK7wWrZD-137" target="UiSJ4ZJuHDlWWK7wWrZD-126" edge="1">
          <mxGeometry width="50" height="50" relative="1" as="geometry">
            <mxPoint x="-1298" y="81.12" as="sourcePoint" />
            <mxPoint x="-1300" y="13.120000000000001" as="targetPoint" />
          </mxGeometry>
        </mxCell>
        <mxCell id="UiSJ4ZJuHDlWWK7wWrZD-148" value="" style="endArrow=none;html=1;rounded=0;entryX=0.573;entryY=0.994;entryDx=0;entryDy=0;entryPerimeter=0;exitX=0.5;exitY=0;exitDx=0;exitDy=0;" parent="1" source="UiSJ4ZJuHDlWWK7wWrZD-139" target="UiSJ4ZJuHDlWWK7wWrZD-126" edge="1">
          <mxGeometry width="50" height="50" relative="1" as="geometry">
            <mxPoint x="-1160" y="92.5" as="sourcePoint" />
            <mxPoint x="-1090" y="18.5" as="targetPoint" />
          </mxGeometry>
        </mxCell>
        <mxCell id="UiSJ4ZJuHDlWWK7wWrZD-152" value="" style="rounded=0;whiteSpace=wrap;html=1;" parent="1" vertex="1">
          <mxGeometry x="-1280" y="-380" width="120" height="60" as="geometry" />
        </mxCell>
        <mxCell id="UiSJ4ZJuHDlWWK7wWrZD-153" value="Disease" style="text;html=1;align=center;verticalAlign=middle;whiteSpace=wrap;rounded=0;" parent="1" vertex="1">
          <mxGeometry x="-1250" y="-365" width="60" height="30" as="geometry" />
        </mxCell>
        <mxCell id="UiSJ4ZJuHDlWWK7wWrZD-160" value="" style="endArrow=none;html=1;rounded=0;entryX=0.57;entryY=1.008;entryDx=0;entryDy=0;entryPerimeter=0;exitX=0.5;exitY=0;exitDx=0;exitDy=0;" parent="1" source="UiSJ4ZJuHDlWWK7wWrZD-161" target="UiSJ4ZJuHDlWWK7wWrZD-152" edge="1">
          <mxGeometry width="50" height="50" relative="1" as="geometry">
            <mxPoint x="-1215" y="-250" as="sourcePoint" />
            <mxPoint x="-1215" y="-320" as="targetPoint" />
          </mxGeometry>
        </mxCell>
        <mxCell id="UiSJ4ZJuHDlWWK7wWrZD-161" value="" style="ellipse;whiteSpace=wrap;html=1;" parent="1" vertex="1">
          <mxGeometry x="-1250" y="-251.25" width="80" height="50" as="geometry" />
        </mxCell>
        <mxCell id="UiSJ4ZJuHDlWWK7wWrZD-162" value="Specialization_&lt;br&gt;ID" style="text;html=1;align=center;verticalAlign=middle;whiteSpace=wrap;rounded=0;" parent="1" vertex="1">
          <mxGeometry x="-1240" y="-241.25" width="60" height="30" as="geometry" />
        </mxCell>
        <mxCell id="UiSJ4ZJuHDlWWK7wWrZD-163" value="" style="ellipse;whiteSpace=wrap;html=1;" parent="1" vertex="1">
          <mxGeometry x="-1350" y="-253.13" width="80" height="50" as="geometry" />
        </mxCell>
        <mxCell id="UiSJ4ZJuHDlWWK7wWrZD-164" value="Disease_Name" style="text;html=1;align=center;verticalAlign=middle;whiteSpace=wrap;rounded=0;" parent="1" vertex="1">
          <mxGeometry x="-1340" y="-243.13" width="60" height="30" as="geometry" />
        </mxCell>
        <mxCell id="UiSJ4ZJuHDlWWK7wWrZD-165" value="" style="ellipse;whiteSpace=wrap;html=1;" parent="1" vertex="1">
          <mxGeometry x="-1150" y="-251.25" width="80" height="50" as="geometry" />
        </mxCell>
        <mxCell id="UiSJ4ZJuHDlWWK7wWrZD-166" value="Disease_id" style="text;html=1;align=center;verticalAlign=middle;whiteSpace=wrap;rounded=0;" parent="1" vertex="1">
          <mxGeometry x="-1140" y="-241.25" width="60" height="30" as="geometry" />
        </mxCell>
        <mxCell id="UiSJ4ZJuHDlWWK7wWrZD-173" value="" style="endArrow=none;html=1;rounded=0;entryX=0.567;entryY=1.015;entryDx=0;entryDy=0;entryPerimeter=0;exitX=1;exitY=0;exitDx=0;exitDy=0;" parent="1" source="UiSJ4ZJuHDlWWK7wWrZD-163" target="UiSJ4ZJuHDlWWK7wWrZD-152" edge="1">
          <mxGeometry width="50" height="50" relative="1" as="geometry">
            <mxPoint x="-1298" y="-256.38" as="sourcePoint" />
            <mxPoint x="-1300" y="-324.38" as="targetPoint" />
          </mxGeometry>
        </mxCell>
        <mxCell id="UiSJ4ZJuHDlWWK7wWrZD-174" value="" style="endArrow=none;html=1;rounded=0;entryX=0.573;entryY=0.994;entryDx=0;entryDy=0;entryPerimeter=0;exitX=0.5;exitY=0;exitDx=0;exitDy=0;" parent="1" source="UiSJ4ZJuHDlWWK7wWrZD-165" target="UiSJ4ZJuHDlWWK7wWrZD-152" edge="1">
          <mxGeometry width="50" height="50" relative="1" as="geometry">
            <mxPoint x="-1160" y="-245" as="sourcePoint" />
            <mxPoint x="-1090" y="-319" as="targetPoint" />
          </mxGeometry>
        </mxCell>
        <mxCell id="UiSJ4ZJuHDlWWK7wWrZD-178" value="" style="rounded=0;whiteSpace=wrap;html=1;" parent="1" vertex="1">
          <mxGeometry x="-840" y="-392.5" width="120" height="60" as="geometry" />
        </mxCell>
        <mxCell id="UiSJ4ZJuHDlWWK7wWrZD-179" value="NurseSpecialization" style="text;html=1;align=center;verticalAlign=middle;whiteSpace=wrap;rounded=0;" parent="1" vertex="1">
          <mxGeometry x="-810" y="-377.5" width="60" height="30" as="geometry" />
        </mxCell>
        <mxCell id="UiSJ4ZJuHDlWWK7wWrZD-186" value="" style="endArrow=none;html=1;rounded=0;entryX=0.57;entryY=1.008;entryDx=0;entryDy=0;entryPerimeter=0;exitX=0.5;exitY=0;exitDx=0;exitDy=0;" parent="1" source="UiSJ4ZJuHDlWWK7wWrZD-187" target="UiSJ4ZJuHDlWWK7wWrZD-178" edge="1">
          <mxGeometry width="50" height="50" relative="1" as="geometry">
            <mxPoint x="-775" y="-262.5" as="sourcePoint" />
            <mxPoint x="-775" y="-332.5" as="targetPoint" />
          </mxGeometry>
        </mxCell>
        <mxCell id="UiSJ4ZJuHDlWWK7wWrZD-187" value="" style="ellipse;whiteSpace=wrap;html=1;" parent="1" vertex="1">
          <mxGeometry x="-731.25" y="-262.5" width="87.5" height="55" as="geometry" />
        </mxCell>
        <mxCell id="UiSJ4ZJuHDlWWK7wWrZD-188" value="Spacialization_&lt;br&gt;Name" style="text;html=1;align=center;verticalAlign=middle;whiteSpace=wrap;rounded=0;" parent="1" vertex="1">
          <mxGeometry x="-717.5" y="-248.75" width="60" height="30" as="geometry" />
        </mxCell>
        <mxCell id="UiSJ4ZJuHDlWWK7wWrZD-204" value="" style="rounded=0;whiteSpace=wrap;html=1;" parent="1" vertex="1">
          <mxGeometry x="-1270" y="290.63" width="120" height="60" as="geometry" />
        </mxCell>
        <mxCell id="UiSJ4ZJuHDlWWK7wWrZD-205" value="Specialization" style="text;html=1;align=center;verticalAlign=middle;whiteSpace=wrap;rounded=0;" parent="1" vertex="1">
          <mxGeometry x="-1240" y="305.63" width="60" height="30" as="geometry" />
        </mxCell>
        <mxCell id="UiSJ4ZJuHDlWWK7wWrZD-208" value="" style="ellipse;whiteSpace=wrap;html=1;" parent="1" vertex="1">
          <mxGeometry x="-1280" y="426.25" width="80" height="50" as="geometry" />
        </mxCell>
        <mxCell id="UiSJ4ZJuHDlWWK7wWrZD-209" value="Specialization_&lt;br&gt;name" style="text;html=1;align=center;verticalAlign=middle;whiteSpace=wrap;rounded=0;" parent="1" vertex="1">
          <mxGeometry x="-1270" y="436.25" width="60" height="30" as="geometry" />
        </mxCell>
        <mxCell id="UiSJ4ZJuHDlWWK7wWrZD-211" value="" style="endArrow=none;html=1;rounded=0;entryX=0.588;entryY=0.016;entryDx=0;entryDy=0;exitX=0.5;exitY=1;exitDx=0;exitDy=0;entryPerimeter=0;" parent="1" source="UiSJ4ZJuHDlWWK7wWrZD-204" target="UiSJ4ZJuHDlWWK7wWrZD-208" edge="1">
          <mxGeometry width="50" height="50" relative="1" as="geometry">
            <mxPoint x="-1115" y="290.63" as="sourcePoint" />
            <mxPoint x="-1155" y="250.63" as="targetPoint" />
          </mxGeometry>
        </mxCell>
        <mxCell id="UiSJ4ZJuHDlWWK7wWrZD-223" value="" style="ellipse;whiteSpace=wrap;html=1;" parent="1" vertex="1">
          <mxGeometry x="-1185" y="423.75" width="80" height="50" as="geometry" />
        </mxCell>
        <mxCell id="UiSJ4ZJuHDlWWK7wWrZD-224" value="Specialization_&lt;br&gt;id" style="text;html=1;align=center;verticalAlign=middle;whiteSpace=wrap;rounded=0;" parent="1" vertex="1">
          <mxGeometry x="-1175" y="433.75" width="60" height="30" as="geometry" />
        </mxCell>
        <mxCell id="UiSJ4ZJuHDlWWK7wWrZD-229" value="" style="endArrow=none;html=1;rounded=0;entryX=0.5;entryY=0;entryDx=0;entryDy=0;exitX=0.5;exitY=1;exitDx=0;exitDy=0;" parent="1" source="UiSJ4ZJuHDlWWK7wWrZD-204" target="UiSJ4ZJuHDlWWK7wWrZD-223" edge="1">
          <mxGeometry width="50" height="50" relative="1" as="geometry">
            <mxPoint x="-1150" y="326.25" as="sourcePoint" />
            <mxPoint x="-1078" y="331.25" as="targetPoint" />
          </mxGeometry>
        </mxCell>
        <mxCell id="UiSJ4ZJuHDlWWK7wWrZD-230" value="" style="rounded=0;whiteSpace=wrap;html=1;" parent="1" vertex="1">
          <mxGeometry x="-757.5" y="299.38" width="120" height="60" as="geometry" />
        </mxCell>
        <mxCell id="UiSJ4ZJuHDlWWK7wWrZD-231" value="Payments" style="text;html=1;align=center;verticalAlign=middle;whiteSpace=wrap;rounded=0;" parent="1" vertex="1">
          <mxGeometry x="-727.5" y="314.38" width="60" height="30" as="geometry" />
        </mxCell>
        <mxCell id="UiSJ4ZJuHDlWWK7wWrZD-232" value="" style="ellipse;whiteSpace=wrap;html=1;" parent="1" vertex="1">
          <mxGeometry x="-787.5" y="209.38" width="80" height="50" as="geometry" />
        </mxCell>
        <mxCell id="UiSJ4ZJuHDlWWK7wWrZD-233" value="payment_id" style="text;html=1;align=center;verticalAlign=middle;whiteSpace=wrap;rounded=0;" parent="1" vertex="1">
          <mxGeometry x="-777.5" y="219.38" width="60" height="30" as="geometry" />
        </mxCell>
        <mxCell id="UiSJ4ZJuHDlWWK7wWrZD-234" value="" style="ellipse;whiteSpace=wrap;html=1;" parent="1" vertex="1">
          <mxGeometry x="-672.5" y="209.38" width="80" height="50" as="geometry" />
        </mxCell>
        <mxCell id="UiSJ4ZJuHDlWWK7wWrZD-235" value="patient_id" style="text;html=1;align=center;verticalAlign=middle;whiteSpace=wrap;rounded=0;" parent="1" vertex="1">
          <mxGeometry x="-662.5" y="219.38" width="60" height="30" as="geometry" />
        </mxCell>
        <mxCell id="UiSJ4ZJuHDlWWK7wWrZD-236" value="" style="endArrow=none;html=1;rounded=0;entryX=0.5;entryY=1;entryDx=0;entryDy=0;" parent="1" target="UiSJ4ZJuHDlWWK7wWrZD-232" edge="1">
          <mxGeometry width="50" height="50" relative="1" as="geometry">
            <mxPoint x="-707.5" y="299.38" as="sourcePoint" />
            <mxPoint x="-657.5" y="249.38" as="targetPoint" />
          </mxGeometry>
        </mxCell>
        <mxCell id="UiSJ4ZJuHDlWWK7wWrZD-237" value="" style="endArrow=none;html=1;rounded=0;entryX=0.381;entryY=0.991;entryDx=0;entryDy=0;exitX=0.413;exitY=-0.005;exitDx=0;exitDy=0;exitPerimeter=0;entryPerimeter=0;" parent="1" source="UiSJ4ZJuHDlWWK7wWrZD-230" target="UiSJ4ZJuHDlWWK7wWrZD-234" edge="1">
          <mxGeometry width="50" height="50" relative="1" as="geometry">
            <mxPoint x="-602.5" y="299.38" as="sourcePoint" />
            <mxPoint x="-642.5" y="259.38" as="targetPoint" />
          </mxGeometry>
        </mxCell>
        <mxCell id="UiSJ4ZJuHDlWWK7wWrZD-238" value="" style="endArrow=none;html=1;rounded=0;entryX=0.57;entryY=1.008;entryDx=0;entryDy=0;entryPerimeter=0;exitX=0.5;exitY=0;exitDx=0;exitDy=0;" parent="1" source="UiSJ4ZJuHDlWWK7wWrZD-239" target="UiSJ4ZJuHDlWWK7wWrZD-230" edge="1">
          <mxGeometry width="50" height="50" relative="1" as="geometry">
            <mxPoint x="-692.5" y="429.38" as="sourcePoint" />
            <mxPoint x="-692.5" y="359.38" as="targetPoint" />
          </mxGeometry>
        </mxCell>
        <mxCell id="UiSJ4ZJuHDlWWK7wWrZD-239" value="" style="ellipse;whiteSpace=wrap;html=1;" parent="1" vertex="1">
          <mxGeometry x="-727.5" y="428.13" width="80" height="50" as="geometry" />
        </mxCell>
        <mxCell id="UiSJ4ZJuHDlWWK7wWrZD-240" value="prescription_id" style="text;html=1;align=center;verticalAlign=middle;whiteSpace=wrap;rounded=0;" parent="1" vertex="1">
          <mxGeometry x="-717.5" y="438.13" width="60" height="30" as="geometry" />
        </mxCell>
        <mxCell id="UiSJ4ZJuHDlWWK7wWrZD-241" value="" style="ellipse;whiteSpace=wrap;html=1;" parent="1" vertex="1">
          <mxGeometry x="-827.5" y="426.25" width="80" height="50" as="geometry" />
        </mxCell>
        <mxCell id="UiSJ4ZJuHDlWWK7wWrZD-242" value="amount" style="text;html=1;align=center;verticalAlign=middle;whiteSpace=wrap;rounded=0;" parent="1" vertex="1">
          <mxGeometry x="-817.5" y="436.25" width="60" height="30" as="geometry" />
        </mxCell>
        <mxCell id="UiSJ4ZJuHDlWWK7wWrZD-243" value="" style="ellipse;whiteSpace=wrap;html=1;" parent="1" vertex="1">
          <mxGeometry x="-627.5" y="428.13" width="80" height="50" as="geometry" />
        </mxCell>
        <mxCell id="UiSJ4ZJuHDlWWK7wWrZD-244" value="currency" style="text;html=1;align=center;verticalAlign=middle;whiteSpace=wrap;rounded=0;" parent="1" vertex="1">
          <mxGeometry x="-617.5" y="438.13" width="60" height="30" as="geometry" />
        </mxCell>
        <mxCell id="UiSJ4ZJuHDlWWK7wWrZD-245" value="" style="ellipse;whiteSpace=wrap;html=1;" parent="1" vertex="1">
          <mxGeometry x="-897.5" y="276.25" width="80" height="50" as="geometry" />
        </mxCell>
        <mxCell id="UiSJ4ZJuHDlWWK7wWrZD-246" value="payment_date" style="text;html=1;align=center;verticalAlign=middle;whiteSpace=wrap;rounded=0;" parent="1" vertex="1">
          <mxGeometry x="-887.5" y="286.25" width="60" height="30" as="geometry" />
        </mxCell>
        <mxCell id="UiSJ4ZJuHDlWWK7wWrZD-247" value="" style="ellipse;whiteSpace=wrap;html=1;" parent="1" vertex="1">
          <mxGeometry x="-907.5" y="361.25" width="100" height="50.63" as="geometry" />
        </mxCell>
        <mxCell id="UiSJ4ZJuHDlWWK7wWrZD-248" value="stripe_checkout_&lt;br&gt;session_id" style="text;html=1;align=center;verticalAlign=middle;whiteSpace=wrap;rounded=0;" parent="1" vertex="1">
          <mxGeometry x="-887.5" y="371.57" width="60" height="30" as="geometry" />
        </mxCell>
        <mxCell id="UiSJ4ZJuHDlWWK7wWrZD-249" value="" style="ellipse;whiteSpace=wrap;html=1;" parent="1" vertex="1">
          <mxGeometry x="-602.5" y="309.38" width="80" height="50" as="geometry" />
        </mxCell>
        <mxCell id="UiSJ4ZJuHDlWWK7wWrZD-250" value="payment_&lt;br&gt;status" style="text;html=1;align=center;verticalAlign=middle;whiteSpace=wrap;rounded=0;" parent="1" vertex="1">
          <mxGeometry x="-592.5" y="319.38" width="60" height="30" as="geometry" />
        </mxCell>
        <mxCell id="UiSJ4ZJuHDlWWK7wWrZD-251" value="" style="endArrow=none;html=1;rounded=0;entryX=0.567;entryY=1.015;entryDx=0;entryDy=0;entryPerimeter=0;exitX=1;exitY=0;exitDx=0;exitDy=0;" parent="1" source="UiSJ4ZJuHDlWWK7wWrZD-241" target="UiSJ4ZJuHDlWWK7wWrZD-230" edge="1">
          <mxGeometry width="50" height="50" relative="1" as="geometry">
            <mxPoint x="-775.5" y="423" as="sourcePoint" />
            <mxPoint x="-777.5" y="355" as="targetPoint" />
          </mxGeometry>
        </mxCell>
        <mxCell id="UiSJ4ZJuHDlWWK7wWrZD-252" value="" style="endArrow=none;html=1;rounded=0;entryX=0.573;entryY=0.994;entryDx=0;entryDy=0;entryPerimeter=0;exitX=0.5;exitY=0;exitDx=0;exitDy=0;" parent="1" source="UiSJ4ZJuHDlWWK7wWrZD-243" target="UiSJ4ZJuHDlWWK7wWrZD-230" edge="1">
          <mxGeometry width="50" height="50" relative="1" as="geometry">
            <mxPoint x="-637.5" y="434.38" as="sourcePoint" />
            <mxPoint x="-567.5" y="360.38" as="targetPoint" />
          </mxGeometry>
        </mxCell>
        <mxCell id="UiSJ4ZJuHDlWWK7wWrZD-253" value="" style="endArrow=none;html=1;rounded=0;entryX=0.567;entryY=1.015;entryDx=0;entryDy=0;entryPerimeter=0;exitX=1;exitY=0;exitDx=0;exitDy=0;" parent="1" source="UiSJ4ZJuHDlWWK7wWrZD-247" edge="1">
          <mxGeometry width="50" height="50" relative="1" as="geometry">
            <mxPoint x="-827.5" y="398.25" as="sourcePoint" />
            <mxPoint x="-757.5" y="324.25" as="targetPoint" />
          </mxGeometry>
        </mxCell>
        <mxCell id="UiSJ4ZJuHDlWWK7wWrZD-254" value="" style="endArrow=none;html=1;rounded=0;exitX=1;exitY=1;exitDx=0;exitDy=0;entryX=-0.004;entryY=0.42;entryDx=0;entryDy=0;entryPerimeter=0;" parent="1" source="UiSJ4ZJuHDlWWK7wWrZD-245" target="UiSJ4ZJuHDlWWK7wWrZD-230" edge="1">
          <mxGeometry width="50" height="50" relative="1" as="geometry">
            <mxPoint x="-827.5" y="314.38" as="sourcePoint" />
            <mxPoint x="-767.5" y="325" as="targetPoint" />
          </mxGeometry>
        </mxCell>
        <mxCell id="UiSJ4ZJuHDlWWK7wWrZD-255" value="" style="endArrow=none;html=1;rounded=0;entryX=0;entryY=0.5;entryDx=0;entryDy=0;" parent="1" target="UiSJ4ZJuHDlWWK7wWrZD-249" edge="1">
          <mxGeometry width="50" height="50" relative="1" as="geometry">
            <mxPoint x="-637.5" y="335" as="sourcePoint" />
            <mxPoint x="-565.5" y="340" as="targetPoint" />
          </mxGeometry>
        </mxCell>
        <mxCell id="UiSJ4ZJuHDlWWK7wWrZD-256" value="" style="ellipse;whiteSpace=wrap;html=1;" parent="1" vertex="1">
          <mxGeometry x="-737.5" y="48.75" width="100" height="50.63" as="geometry" />
        </mxCell>
        <mxCell id="UiSJ4ZJuHDlWWK7wWrZD-257" value="Date" style="text;html=1;align=center;verticalAlign=middle;whiteSpace=wrap;rounded=0;" parent="1" vertex="1">
          <mxGeometry x="-717.5" y="59.06999999999999" width="60" height="30" as="geometry" />
        </mxCell>
        <mxCell id="UiSJ4ZJuHDlWWK7wWrZD-258" value="" style="ellipse;whiteSpace=wrap;html=1;" parent="1" vertex="1">
          <mxGeometry x="-897.5" y="-253.13" width="80" height="50" as="geometry" />
        </mxCell>
        <mxCell id="UiSJ4ZJuHDlWWK7wWrZD-259" value="Specialization&lt;br&gt;_ID" style="text;html=1;align=center;verticalAlign=middle;whiteSpace=wrap;rounded=0;" parent="1" vertex="1">
          <mxGeometry x="-887.5" y="-243.13" width="60" height="30" as="geometry" />
        </mxCell>
        <mxCell id="UiSJ4ZJuHDlWWK7wWrZD-260" value="" style="endArrow=none;html=1;rounded=0;entryX=0.57;entryY=1.004;entryDx=0;entryDy=0;exitX=0.5;exitY=0;exitDx=0;exitDy=0;entryPerimeter=0;" parent="1" source="UiSJ4ZJuHDlWWK7wWrZD-258" target="UiSJ4ZJuHDlWWK7wWrZD-178" edge="1">
          <mxGeometry width="50" height="50" relative="1" as="geometry">
            <mxPoint x="-842.74" y="-285.03" as="sourcePoint" />
            <mxPoint x="-777.26" y="-324.98" as="targetPoint" />
          </mxGeometry>
        </mxCell>
        <mxCell id="VXX30-E3wB-nR8ctSc7D-1" value="" style="rounded=0;whiteSpace=wrap;html=1;" vertex="1" parent="1">
          <mxGeometry x="-1090" y="-608.75" width="120" height="60" as="geometry" />
        </mxCell>
        <mxCell id="VXX30-E3wB-nR8ctSc7D-2" value="Admin" style="text;html=1;align=center;verticalAlign=middle;whiteSpace=wrap;rounded=0;" vertex="1" parent="1">
          <mxGeometry x="-1060" y="-593.75" width="60" height="30" as="geometry" />
        </mxCell>
        <mxCell id="VXX30-E3wB-nR8ctSc7D-3" value="" style="endArrow=none;html=1;rounded=0;entryX=0.57;entryY=1.008;entryDx=0;entryDy=0;entryPerimeter=0;exitX=0.5;exitY=0;exitDx=0;exitDy=0;" edge="1" source="VXX30-E3wB-nR8ctSc7D-4" target="VXX30-E3wB-nR8ctSc7D-1" parent="1">
          <mxGeometry width="50" height="50" relative="1" as="geometry">
            <mxPoint x="-1025" y="-478.75" as="sourcePoint" />
            <mxPoint x="-1025" y="-548.75" as="targetPoint" />
          </mxGeometry>
        </mxCell>
        <mxCell id="VXX30-E3wB-nR8ctSc7D-4" value="" style="ellipse;whiteSpace=wrap;html=1;" vertex="1" parent="1">
          <mxGeometry x="-1060" y="-480" width="80" height="50" as="geometry" />
        </mxCell>
        <mxCell id="VXX30-E3wB-nR8ctSc7D-5" value="Admin_email" style="text;html=1;align=center;verticalAlign=middle;whiteSpace=wrap;rounded=0;" vertex="1" parent="1">
          <mxGeometry x="-1050" y="-470" width="60" height="30" as="geometry" />
        </mxCell>
        <mxCell id="VXX30-E3wB-nR8ctSc7D-6" value="" style="ellipse;whiteSpace=wrap;html=1;" vertex="1" parent="1">
          <mxGeometry x="-1160" y="-481.88" width="80" height="50" as="geometry" />
        </mxCell>
        <mxCell id="VXX30-E3wB-nR8ctSc7D-7" value="Admin_id" style="text;html=1;align=center;verticalAlign=middle;whiteSpace=wrap;rounded=0;" vertex="1" parent="1">
          <mxGeometry x="-1150" y="-471.88" width="60" height="30" as="geometry" />
        </mxCell>
        <mxCell id="VXX30-E3wB-nR8ctSc7D-8" value="" style="ellipse;whiteSpace=wrap;html=1;" vertex="1" parent="1">
          <mxGeometry x="-960" y="-480" width="100" height="60" as="geometry" />
        </mxCell>
        <mxCell id="VXX30-E3wB-nR8ctSc7D-9" value="Admin_Password" style="text;html=1;align=center;verticalAlign=middle;whiteSpace=wrap;rounded=0;" vertex="1" parent="1">
          <mxGeometry x="-940" y="-465" width="60" height="30" as="geometry" />
        </mxCell>
        <mxCell id="VXX30-E3wB-nR8ctSc7D-10" value="" style="endArrow=none;html=1;rounded=0;entryX=0.567;entryY=1.015;entryDx=0;entryDy=0;entryPerimeter=0;exitX=1;exitY=0;exitDx=0;exitDy=0;" edge="1" source="VXX30-E3wB-nR8ctSc7D-6" target="VXX30-E3wB-nR8ctSc7D-1" parent="1">
          <mxGeometry width="50" height="50" relative="1" as="geometry">
            <mxPoint x="-1108" y="-485.13" as="sourcePoint" />
            <mxPoint x="-1110" y="-553.13" as="targetPoint" />
          </mxGeometry>
        </mxCell>
        <mxCell id="VXX30-E3wB-nR8ctSc7D-11" value="" style="endArrow=none;html=1;rounded=0;entryX=0.573;entryY=0.994;entryDx=0;entryDy=0;entryPerimeter=0;exitX=0.5;exitY=0;exitDx=0;exitDy=0;" edge="1" source="VXX30-E3wB-nR8ctSc7D-8" target="VXX30-E3wB-nR8ctSc7D-1" parent="1">
          <mxGeometry width="50" height="50" relative="1" as="geometry">
            <mxPoint x="-970" y="-473.75" as="sourcePoint" />
            <mxPoint x="-900" y="-547.75" as="targetPoint" />
          </mxGeometry>
        </mxCell>
      </root>
    </mxGraphModel>
  </diagram>
</mxfile>
